<svg width="26" height="26" viewBox="0 0 26 26" fill="none" xmlns="http://www.w3.org/2000/svg">
<path d="M19.0625 8.09703V5.6964C19.0625 4.94834 18.9154 4.2076 18.6296 3.51648C18.3437 2.82536 17.9248 2.1974 17.3967 1.66844C16.8685 1.13948 16.2416 0.719883 15.5515 0.433613C14.8615 0.147342 14.1219 0 13.375 0C12.6281 0 11.8885 0.147342 11.1985 0.433613C10.5084 0.719883 9.88146 1.13948 9.35333 1.66844C8.8252 2.1974 8.40626 2.82536 8.12044 3.51648C7.83461 4.2076 7.6875 4.94834 7.6875 5.6964V11.3928C7.6875 11.6086 7.7731 11.8156 7.92548 11.9682C8.07785 12.1208 8.28451 12.2066 8.5 12.2066C8.71549 12.2066 8.92215 12.1208 9.07452 11.9682C9.2269 11.8156 9.3125 11.6086 9.3125 11.3928V9.72457L17.4375 9.72458V8.09704L9.3125 8.09703V5.6964C9.3125 4.61727 9.74051 3.58234 10.5024 2.81928C11.2642 2.05623 12.2976 1.62754 13.375 1.62754C14.4524 1.62754 15.4858 2.05623 16.2476 2.81928C17.0095 3.58234 17.4375 4.61727 17.4375 5.6964V11.3521C17.4375 11.5679 17.5231 11.7749 17.6755 11.9275C17.8278 12.0801 18.0345 12.1659 18.25 12.1659C18.4655 12.1659 18.6722 12.0801 18.8245 11.9275C18.9769 11.7749 19.0625 11.5679 19.0625 11.3521V9.72457H23.125V24.3725H3.625V9.72457L7.6875 9.72458V8.09704L2 8.09703V24.4457C2 24.8579 2.1635 25.2533 2.45453 25.5448C2.74557 25.8362 3.14029 26 3.55187 26H23.1981C23.6097 26 24.0044 25.8362 24.2955 25.5448C24.5865 25.2533 24.75 24.8579 24.75 24.4457V8.09703H19.0625Z" fill="#212121"/>
</svg>
