<svg width="191" height="191" viewBox="0 0 191 191" fill="none" xmlns="http://www.w3.org/2000/svg">
<path d="M38.3376 108.12C38.2379 107.448 38.0665 106.563 37.9287 105.634C37.7294 104.288 37.6224 103.293 37.4934 102.423C37.4846 102.363 37.2472 102.398 37.256 102.458C37.5374 104.357 37.3271 104.712 36.1401 104.888L27.079 106.23C26.2876 106.347 25.9212 106.058 25.7776 105.089L25.6428 104.179C25.4053 102.576 26.1688 101.452 27.9589 100.843C28.0351 100.812 27.9831 100.597 27.9237 100.606L24.8433 101.102C24.7246 101.12 24.674 101.188 24.6945 101.327L25.9579 109.854C25.9697 109.933 26.2071 109.898 26.1954 109.818C26.0048 108.532 26.21 108.28 27.3377 108.113L36.4977 106.755C37.6451 106.585 37.8979 106.791 38.1002 108.156C38.1119 108.235 38.3493 108.2 38.3376 108.12Z" fill="#B29D8C"/>
<path d="M37.2769 84.7915C37.2342 85.5102 36.6244 85.9949 34.6509 86.8395L24.4992 91.1256C24.417 91.1608 24.4203 91.4415 24.4791 91.465L33.8885 96.311C36.0066 97.4184 36.4961 97.9483 36.4321 99.0264C36.425 99.1462 36.6646 99.1604 36.6717 99.0406C36.7226 98.1822 36.67 97.7182 36.7293 96.72C36.7909 95.6818 36.9027 95.1475 36.9489 94.3689C36.956 94.2491 36.7165 94.2349 36.7094 94.3546C36.6158 95.9319 35.6923 96.6384 34.1166 95.8437L30.7539 94.1014L30.9684 90.4877L35.4686 88.591C36.7432 88.0456 37.0707 88.2654 36.9996 89.4632C36.9925 89.583 37.2321 89.5973 37.2392 89.4775C37.2866 88.6789 37.2387 88.1351 37.2921 87.2367C37.3383 86.458 37.4703 85.5843 37.5165 84.8057C37.5236 84.6859 37.284 84.6717 37.2769 84.7915ZM30.2478 93.851L27.0026 92.1557L30.4339 90.7165L30.2478 93.851Z" fill="#B29D8C"/>
<path d="M37.0116 80.8208L28.1817 78.4602C27.0804 78.1658 26.9736 77.8682 27.2112 76.9794C27.6554 75.3177 29.0885 74.6036 31.1366 75.1511C33.3006 75.7296 34.0392 77.1485 33.7034 78.4044C33.6569 78.5783 33.5653 78.8436 33.4454 79.06C33.4054 79.1321 33.6411 79.2572 33.6862 79.1658C33.841 78.8966 33.9481 78.5733 34.0256 78.2835C34.5576 76.2934 33.9409 73.6442 31.2538 73.0087C28.9726 72.4817 27.6099 73.9392 26.9797 76.2964C26.737 77.2045 26.5533 78.3562 26.388 78.9745C26.1453 79.8826 25.8704 80.6786 25.6947 81.3355C25.6741 81.4128 25.9059 81.4748 25.9266 81.3975C26.2623 80.1416 26.551 79.991 27.6523 80.2855L36.5982 82.677C37.7188 82.9766 37.8746 83.2459 37.5388 84.5018C37.5182 84.5791 37.75 84.6411 37.7707 84.5638C37.9463 83.9069 38.1298 83.0657 38.3725 82.1576C38.6773 81.0176 38.969 80.0812 39.1911 79.2504C39.2066 79.1924 38.9748 79.1304 38.9593 79.1884C38.4944 80.9273 38.1709 81.1307 37.0116 80.8208Z" fill="#B29D8C"/>
<path d="M46.0387 62.7932C45.7149 63.4363 44.963 63.6399 42.8164 63.634L31.7972 63.5498C31.7078 63.5495 31.5997 63.8086 31.6443 63.8534L38.3657 72.0293C39.8721 73.8849 40.1117 74.5654 39.6261 75.53C39.5721 75.6372 39.7865 75.7451 39.8404 75.6379C40.2272 74.8698 40.3626 74.4229 40.8123 73.5298C41.28 72.6009 41.5942 72.1545 41.945 71.4578C41.999 71.3506 41.7846 71.2427 41.7306 71.3499C41.0201 72.7611 39.8924 73.0442 38.7602 71.6905L36.3623 68.7591L37.9902 65.5257L42.8736 65.5661C44.26 65.5699 44.4737 65.9015 43.9341 66.9733C43.8802 67.0805 44.0945 67.1884 44.1485 67.0812C44.5082 66.3667 44.6796 65.8484 45.0843 65.0445C45.4351 64.3478 45.9023 63.5978 46.253 62.9011C46.307 62.7939 46.0926 62.686 46.0387 62.7932ZM35.9968 68.3287L33.6881 65.487L37.4088 65.5241L35.9968 68.3287Z" fill="#B29D8C"/>
<path d="M55.0986 52.0677C54.2027 53.1174 53.8796 53.1571 52.9972 52.4041L45.9538 46.3927C45.0867 45.6526 45.0599 45.3143 45.9558 44.2646C46.0077 44.2037 45.8252 44.0479 45.7732 44.1088C45.3318 44.626 44.7542 45.3952 44.144 46.1102C43.4039 46.9773 42.813 47.5773 42.3715 48.0945C42.3326 48.1401 42.5151 48.2959 42.5541 48.2503C43.5149 47.1246 43.8706 47.139 44.7378 47.8791L47.8412 50.5277L43.3878 55.7457L40.2844 53.097C39.4173 52.3569 39.3731 51.9774 40.3079 50.8821C40.3468 50.8365 40.1643 50.6807 40.1253 50.7263C39.6579 51.274 39.1453 51.967 38.4052 52.8342C37.795 53.5492 37.1781 54.1796 36.7366 54.6968C36.6977 54.7424 36.8802 54.8982 36.9192 54.8526C37.8021 53.8181 38.1404 53.7914 39.0075 54.5315L46.051 60.5429C46.9333 61.2959 46.9449 61.6213 46.049 62.671C45.9971 62.7318 46.1796 62.8876 46.2316 62.8268C46.673 62.3096 47.2268 61.599 47.8371 60.884C48.5771 60.0169 49.1529 59.4039 49.6333 58.8411C49.6722 58.7954 49.4897 58.6396 49.4507 58.6853C48.5029 59.7958 48.1798 59.8355 47.2974 59.0825L43.7833 56.0832L48.2367 50.8653L51.7508 53.8645C52.6332 54.6176 52.6577 54.9277 51.6969 56.0535C51.6579 56.0991 51.8405 56.2549 51.8794 56.2093C52.3209 55.692 52.8358 55.0271 53.5758 54.16C54.1861 53.445 54.8397 52.7408 55.2811 52.2235C55.3331 52.1627 55.1505 52.0069 55.0986 52.0677Z" fill="#B29D8C"/>
<path d="M51.6127 39.924C52.4496 39.3065 52.7453 39.3368 53.3391 40.1414L58.8372 47.5925C59.5259 48.5259 59.4151 48.8811 58.2243 49.7598C58.176 49.7955 58.3185 49.9886 58.3668 49.9529C58.9783 49.5017 59.7109 48.9114 60.5317 48.3058C61.4168 47.6527 62.1647 47.1505 62.7602 46.7111C62.8245 46.6636 62.682 46.4705 62.6177 46.518C61.3946 47.4205 61.0869 47.3741 60.3982 46.4407L54.9239 39.0218C54.3183 38.201 54.3325 37.9171 55.2176 37.264C56.5372 36.2903 57.8923 36.4088 59.3645 37.9324C59.4162 37.9688 59.5932 37.8381 59.5576 37.7899C59.1657 37.2588 57.8212 35.2682 57.375 34.5287C57.3156 34.4483 57.1547 34.567 57.198 34.6594C57.3347 35.0804 56.9959 35.4298 56.2396 35.9879C55.4188 36.5936 54.682 37.2118 53.1692 38.3281C51.9622 39.2187 50.84 40.022 49.8989 40.6666C49.5931 40.8923 48.99 41.2876 48.7525 40.9657C48.6694 40.8531 48.4882 41.0117 48.5594 41.1082C49.1294 41.8807 50.2789 43.7417 50.626 44.3804C50.6616 44.4287 50.8505 44.3142 50.831 44.254C50.0941 42.3122 50.277 40.9096 51.6127 39.924Z" fill="#B29D8C"/>
<path d="M77.7305 38.9559C76.4685 39.5143 76.16 39.4102 75.6906 38.3494L71.9438 29.8813C71.4825 28.8388 71.6049 28.5222 72.8669 27.9638C72.9401 27.9314 72.8429 27.7119 72.7698 27.7443C72.1479 28.0195 71.2943 28.4628 70.453 28.835C69.3922 29.3044 68.5997 29.5894 67.9962 29.8564C67.923 29.8888 68.0201 30.1083 68.0933 30.0759C69.4467 29.4771 69.7429 29.6522 70.2042 30.6947L70.4793 31.3166L67.2902 40.4697L64.1503 33.3733C63.689 32.3308 63.8135 31.9696 65.1304 31.3869C65.1852 31.3626 65.0881 31.1431 65.0333 31.1674C64.3748 31.4588 63.6126 31.8616 62.5701 32.3229C61.7105 32.7032 60.8815 33.0044 60.2597 33.2796C60.2048 33.3038 60.3019 33.5233 60.3568 33.499C61.6005 32.9487 61.917 33.0711 62.3783 34.1136L66.1251 42.5817C66.5945 43.6425 66.464 43.9408 65.202 44.4992C65.1289 44.5316 65.226 44.7511 65.2992 44.7187C65.921 44.4436 66.7279 44.0428 67.5875 43.6625C68.63 43.2012 69.4143 42.8979 70.091 42.5985C70.1459 42.5742 70.0488 42.3547 69.9939 42.379C68.6588 42.9697 68.3503 42.8657 67.8809 41.8049L67.5896 41.1464L70.7788 31.9933L73.9348 39.1263C74.4042 40.1871 74.3103 40.4692 72.9569 41.068C72.8837 41.1004 72.9808 41.3199 73.054 41.2875C73.6575 41.0204 74.4095 40.644 75.4703 40.1746C76.3116 39.8024 77.2057 39.4505 77.8276 39.1754C77.9007 39.143 77.8036 38.9235 77.7305 38.9559Z" fill="#B29D8C"/>
<path d="M88.8462 36.8445C87.4145 37.1306 87.1949 36.9501 86.9676 35.8126L85.1532 26.7321C84.9298 25.6142 85.0593 25.3436 86.4714 25.0614C86.5498 25.0457 86.5028 24.8104 86.4243 24.8261C85.7183 24.9671 84.9063 25.1906 83.9257 25.3865C83.2589 25.5197 82.1763 25.6137 81.6272 25.7234C79.3718 26.1741 77.932 27.7467 78.2886 29.5314C78.6139 31.1592 80.1081 32.0028 82.642 31.7208C81.4142 32.2109 80.6139 33.0031 79.9193 35.0386C78.9461 37.6193 78.7184 38.8274 77.4514 39.1213C77.3926 39.1331 77.4396 39.3684 77.4985 39.3567L79.8912 38.8786C80.3423 38.7884 80.4285 38.914 81.7236 35.086C82.5634 32.5523 83.1676 31.7994 84.16 31.4583L85.1044 36.1849C85.3317 37.3224 85.1787 37.5773 83.8843 37.836C83.8058 37.8516 83.8529 38.087 83.9313 38.0713C84.5981 37.9381 85.3944 37.7382 86.3554 37.5461C87.3164 37.3541 88.1872 37.2209 88.8932 37.0798C88.9521 37.0681 88.905 36.8327 88.8462 36.8445ZM80.1323 28.6531C79.8344 27.1626 80.3249 26.2488 81.6585 25.9823C82.3253 25.8491 83.0706 26.0061 83.2978 27.1436L84.0816 31.0661C83.9286 31.117 83.7717 31.1484 83.6541 31.1719C81.7124 31.5598 80.4967 30.4771 80.1323 28.6531Z" fill="#B29D8C"/>
<path d="M108.032 37.8136C106.66 37.6644 106.446 37.4198 106.571 36.2666L107.572 27.0609C107.695 25.9275 107.96 25.7149 109.332 25.8641C109.411 25.8727 109.437 25.6342 109.358 25.6255C108.682 25.552 107.721 25.5078 106.786 25.4062C105.653 25.283 104.825 25.1325 104.148 25.059C104.089 25.0525 104.063 25.2911 104.123 25.2976C105.594 25.4576 105.782 25.7597 105.659 26.893L105.218 30.9491L98.3982 30.2075L98.8393 26.1514C98.9625 25.018 99.2513 24.7678 100.683 24.9235C100.742 24.93 100.768 24.6914 100.709 24.6849C99.993 24.6071 99.1316 24.5737 97.9982 24.4505C97.0637 24.3488 96.1954 24.1941 95.5194 24.1205C95.4597 24.114 95.4338 24.3526 95.4934 24.3591C96.8455 24.5062 97.0581 24.7707 96.9348 25.904L95.9337 35.1097C95.8083 36.2629 95.5459 36.4557 94.174 36.3065C94.0945 36.2979 94.0685 36.5364 94.148 36.5451C94.8241 36.6186 95.7231 36.6762 96.6576 36.7778C97.7909 36.901 98.6217 37.0316 99.3573 37.1116C99.417 37.1181 99.4429 36.8795 99.3833 36.873C97.9318 36.7152 97.717 36.4705 97.8424 35.3173L98.3419 30.7244L105.162 31.4661L104.662 36.059C104.537 37.2122 104.294 37.4071 102.823 37.2471C102.763 37.2406 102.737 37.4792 102.797 37.4857C103.473 37.5592 104.312 37.6103 105.446 37.7335C106.38 37.8352 107.33 37.9787 108.006 38.0522C108.086 38.0609 108.112 37.8223 108.032 37.8136Z" fill="#B29D8C"/>
<path d="M121.473 42.6694C120.797 42.4204 120.51 41.6963 120.274 39.5627L119.113 28.6046C119.103 28.5157 118.833 28.4376 118.794 28.4869L111.429 36.0887C109.756 37.7951 109.107 38.11 108.093 37.7364C107.981 37.6949 107.898 37.92 108.01 37.9615C108.817 38.2591 109.276 38.3431 110.215 38.6891C111.191 39.0488 111.669 39.3107 112.401 39.5805C112.514 39.622 112.597 39.3969 112.484 39.3554C111.002 38.8088 110.593 37.7202 111.81 36.4424L114.452 33.7287L117.849 34.981L118.36 39.8378C118.513 41.2157 118.208 41.4656 117.082 41.0504C116.969 41.0089 116.886 41.2341 116.999 41.2756C117.749 41.5524 118.284 41.6641 119.128 41.9755C119.86 42.2453 120.658 42.6248 121.39 42.8946C121.502 42.9361 121.585 42.7109 121.473 42.6694ZM114.839 33.317L117.401 30.7021L117.785 34.4032L114.839 33.317Z" fill="#B29D8C"/>
<path d="M134.779 43.5315C136.372 43.9714 137.691 43.6079 138.444 42.598C139.413 41.2995 138.973 39.7486 137.065 38.3255C136.44 37.8592 135.647 37.4172 135.054 36.9747C134.316 36.4247 133.663 35.8623 133.118 35.4558C133.07 35.4199 132.926 35.6123 132.974 35.6481C133.952 36.3776 134.049 36.7494 133.367 37.6631L127.831 45.0855C127.137 46.0153 126.749 46.0003 125.771 45.2708C125.707 45.223 125.563 45.4154 125.628 45.4632C126.173 45.8698 126.902 46.3639 127.639 46.914C128.361 47.4521 129.283 48.2897 129.892 48.7442C131.912 50.2509 134.376 50.0925 135.643 48.3933C136.731 46.9344 136.399 45.0393 134.779 43.5315ZM136.553 38.4429C137.692 39.2919 137.715 40.4319 136.83 41.6182C135.909 42.8526 134.586 43.388 133.272 42.4074C133.24 42.3835 132.983 42.1921 132.61 41.8891L134.882 38.8432C135.54 37.9615 135.896 37.9526 136.553 38.4429ZM129.895 48.1721C128.788 47.347 128.855 46.9228 129.37 46.2335L132.276 42.338C132.684 42.5929 133.037 42.856 133.261 43.0234C134.945 44.2791 134.909 45.9992 133.737 47.5702C132.685 48.9809 131.418 49.3082 129.895 48.1721Z" fill="#B29D8C"/>
<path d="M142.71 56.495C141.11 57.3308 139.718 57.0984 138.49 55.7822L137.821 55.0655C137.235 54.4367 137.263 54.0273 137.907 53.427L141.227 50.3303L142.523 51.7197C143.546 52.8166 143.612 53.767 142.807 54.5173C142.749 54.5718 142.913 54.7473 142.971 54.6928C143.498 54.2017 143.881 53.7622 144.363 53.312C144.744 52.9573 145.034 52.741 145.663 52.1544C145.722 52.0998 145.558 51.9243 145.499 51.9789C144.797 52.6337 143.926 52.4619 142.93 51.3942L141.607 49.9756L144.576 47.2063C145.19 46.6333 145.656 46.6637 146.324 47.3803L146.87 47.9653C147.921 49.0915 147.992 50.2826 147.113 51.568C147.069 51.609 147.234 51.7562 147.277 51.7153L149.151 49.9126C149.239 49.8307 149.256 49.7605 149.16 49.6581L143.472 43.5594C143.417 43.5009 143.241 43.6646 143.296 43.7231C144.183 44.6738 144.157 44.9984 143.324 45.776L136.552 52.0922C135.704 52.8834 135.393 52.8726 134.506 51.922C134.452 51.8635 134.276 52.0272 134.331 52.0857L140.251 58.433C140.415 58.6085 140.515 58.5978 140.675 58.4478C141.319 57.8475 142.221 57.143 142.845 56.6978C142.889 56.6569 142.768 56.4687 142.71 56.495Z" fill="#B29D8C"/>
<path d="M155.84 58.8336C153.799 55.5571 149.789 53.8843 146.495 55.9354C143.932 57.5318 142.026 61.1688 144.744 65.5319C145.389 66.5675 146.214 67.5143 147.304 68.3196C147.489 68.464 147.55 68.4493 147.853 68.3311L150.185 67.2324C150.236 67.2007 150.181 66.9992 150.075 67.0181C147.615 67.4191 145.975 66.791 145.056 65.314C143.533 62.8693 144.948 59.4669 148.106 57.5004C150.823 55.8088 153.529 56.0315 155.02 58.4253C156.13 60.2079 156.036 62.1751 154.683 63.9367C154.619 64.0235 154.765 64.1446 154.816 64.1129L156.896 62.5347C157.123 62.3697 157.17 62.2935 157.145 62.0263C157.038 61.1739 156.453 59.8183 155.84 58.8336Z" fill="#B29D8C"/>
<path d="M156.064 72.4492C155.885 71.9609 155.661 71.4677 155.4 70.9883L159.062 69.6458C160.132 69.2534 160.478 69.3823 160.974 70.7343C161.001 70.8094 161.227 70.7268 161.199 70.6517C160.958 69.9945 160.599 69.1889 160.206 68.1186C159.89 67.2548 159.671 66.483 159.437 65.8446C159.416 65.7883 159.191 65.8709 159.211 65.9272C159.659 67.1478 159.509 67.4369 158.439 67.8293L149.745 71.0168C148.656 71.4161 148.366 71.2665 147.919 70.046C147.891 69.9709 147.666 70.0535 147.694 70.1286C147.928 70.767 148.268 71.5795 148.585 72.4433C148.895 73.2883 149.25 74.6065 149.484 75.2449C150.358 77.6297 152.468 78.7946 154.515 78.0442C156.769 77.2181 156.959 74.8903 156.064 72.4492ZM149.785 74.7298C149.31 73.4341 149.711 73.0742 150.406 72.8195L154.969 71.1466C155.142 71.4452 155.278 71.7575 155.381 72.0392C156.069 73.9169 155.623 75.4867 153.332 76.3266C151.66 76.9393 150.453 76.5512 149.785 74.7298Z" fill="#B29D8C"/>
<path d="M165.685 91.4546C165.414 87.6041 162.652 84.2497 158.781 84.522C155.769 84.734 152.384 87.0573 152.744 92.1846C152.83 93.4016 153.116 94.6245 153.704 95.8463C153.799 96.0602 153.86 96.0759 154.184 96.1133L156.758 96.2329C156.818 96.2287 156.864 96.025 156.761 95.9921C154.4 95.1959 153.244 93.8737 153.122 92.138C152.92 89.2651 155.762 86.9198 159.473 86.6588C162.665 86.4342 164.954 87.8972 165.151 90.7102C165.299 92.805 164.295 94.4997 162.275 95.4237C162.178 95.4706 162.251 95.646 162.311 95.6418L164.887 95.2199C165.165 95.1803 165.242 95.1348 165.345 94.8869C165.649 94.0836 165.766 92.6117 165.685 91.4546Z" fill="#B29D8C"/>
<path d="M154.445 101.17L163.511 102.329C164.642 102.473 164.787 102.754 164.671 103.666C164.452 105.373 163.128 106.272 161.025 106.003C158.803 105.719 157.881 104.412 158.046 103.122C158.069 102.944 158.124 102.669 158.214 102.438C158.244 102.361 157.994 102.269 157.961 102.365C157.844 102.653 157.781 102.988 157.743 103.285C157.482 105.329 158.447 107.871 161.195 108.142C163.526 108.359 164.682 106.733 164.991 104.312C165.11 103.38 165.138 102.214 165.22 101.579C165.339 100.647 165.505 99.8212 165.591 99.1467C165.601 99.0674 165.363 99.0369 165.353 99.1163C165.188 100.406 164.922 100.594 163.791 100.449L154.606 99.2751C153.455 99.1281 153.265 98.8819 153.43 97.5924C153.44 97.5131 153.202 97.4826 153.192 97.562C153.106 98.2365 153.036 99.0946 152.917 100.027C152.768 101.198 152.604 102.165 152.495 103.018C152.487 103.077 152.725 103.108 152.733 103.048C152.961 101.263 153.254 101.018 154.445 101.17Z" fill="#B29D8C"/>
<path d="M149.801 113.386C148.539 116.97 150.205 120.971 153.714 122.206C156.751 123.276 160.484 122.067 161.793 118.351C162.869 115.295 162.113 111 158.019 109.558C154.699 108.389 151.077 109.764 149.801 113.386ZM150.028 114.187C150.971 111.508 154.346 110.534 157.987 111.816C161.062 112.899 162.464 114.94 161.587 117.43C160.564 120.335 157.349 121.218 153.877 119.995C150.501 118.806 149.244 116.413 150.028 114.187Z" fill="#B29D8C"/>
<path d="M140.651 131.73C141.453 130.558 142.978 130.517 145.71 130.373C148.36 130.247 149.114 130.184 149.961 129.089L151.353 133.172C151.929 134.827 151.884 136.486 151.202 137.546C151.17 137.596 151.371 137.726 151.404 137.676C151.739 137.154 152.003 136.634 152.631 135.659C153.215 134.75 153.644 134.194 153.991 133.656C154.023 133.606 153.821 133.476 153.789 133.526C153.204 134.434 152.35 134.099 151.615 132.174L150.249 128.679L150.325 128.562C150.53 128.242 150.768 127.872 151.033 127.424L154.565 129.697C155.523 130.314 155.629 130.667 154.893 131.811C154.86 131.861 155.062 131.991 155.095 131.941C155.474 131.352 155.91 130.563 156.484 129.671C156.993 128.881 157.498 128.207 157.866 127.635C157.909 127.568 157.707 127.438 157.664 127.505C156.928 128.649 156.596 128.721 155.637 128.104L147.851 123.093C146.875 122.465 146.82 122.144 147.567 120.984C147.61 120.916 147.408 120.786 147.365 120.854C146.997 121.425 146.565 122.17 146.057 122.961C145.483 123.852 144.973 124.57 144.583 125.176C144.551 125.226 144.753 125.356 144.785 125.306C145.532 124.145 145.836 124.079 146.812 124.707L150.747 127.24L150.704 127.307C149.935 128.501 149.34 128.428 146.413 128.542C142.338 128.702 142.267 128.775 142.018 129.162L140.449 131.6C140.416 131.651 140.618 131.781 140.651 131.73Z" fill="#B29D8C"/>
<path d="M139.777 149.797C142.722 147.302 143.795 143.092 141.288 140.13C139.337 137.826 135.462 136.468 131.539 139.79C130.608 140.578 129.791 141.532 129.152 142.728C129.036 142.931 129.06 142.99 129.221 143.273L130.646 145.42C130.685 145.466 130.876 145.383 130.842 145.281C130.089 142.905 130.472 141.191 131.8 140.067C133.998 138.206 137.57 139.112 139.973 141.951C142.041 144.393 142.214 147.104 140.062 148.926C138.459 150.283 136.499 150.475 134.56 149.392C134.464 149.342 134.366 149.504 134.405 149.55L136.268 151.379C136.464 151.579 136.546 151.615 136.807 151.551C137.635 151.322 138.891 150.546 139.777 149.797Z" fill="#B29D8C"/>
<path d="M126.941 143.515C123.803 145.154 126.973 151.395 128.815 154.923C129.288 155.827 129.282 156.033 128.307 156.542L126.623 157.422C125.595 157.959 125.56 157.977 124.985 156.878L120.782 148.83C120.245 147.802 120.338 147.505 121.579 146.857C121.632 146.829 121.521 146.616 121.468 146.644C120.829 146.977 120.05 147.43 119.128 147.911C118.295 148.346 117.514 148.709 116.894 149.033C116.841 149.061 116.952 149.274 117.005 149.246C118.246 148.598 118.561 148.682 119.098 149.71L123.385 157.918C123.913 158.928 123.811 159.252 122.57 159.9C122.517 159.928 122.628 160.141 122.681 160.113L132.094 155.196C132.165 155.159 132.054 154.946 131.983 154.983C130.299 155.863 129.6 155.258 128.507 153.166C127.127 150.525 125.486 146.26 127.543 145.186L127.915 144.991C128.358 144.76 128.673 144.37 128.377 143.802C128.081 143.235 127.526 143.209 126.941 143.515Z" fill="#B29D8C"/>
<path d="M108.033 164.557C108.746 164.359 109.096 164.199 109.886 163.98C110.85 163.713 111.348 163.637 112.022 163.45C112.08 163.434 112.016 163.203 111.958 163.219C110.705 163.566 110.036 163.025 110.265 161.904L111.395 155.8L116.026 160.825C116.74 161.602 116.314 162.011 115.331 162.283C115.254 162.305 115.318 162.536 115.395 162.515C115.915 162.37 116.477 162.152 118.038 161.719C119.253 161.383 119.404 161.403 120.02 161.232C120.097 161.211 120.033 160.979 119.956 161.001C119.185 161.214 118.712 160.931 117.958 160.081L111.802 153.528C112.256 151.721 113.718 150.257 115.414 149.787C115.491 149.765 115.427 149.534 115.35 149.555L111.939 150.502C111.38 150.657 111.694 151.192 111.252 153.639L109.72 162.034C109.457 163.331 108.874 164.074 107.969 164.325C107.892 164.347 107.956 164.578 108.033 164.557Z" fill="#B29D8C"/>
<path d="M85.4371 153.269C86.8571 153.306 87.6989 154.525 89.3222 156.783C90.8653 158.921 91.2463 159.54 92.5864 159.658L90.0114 163.042C88.8336 164.584 87.6347 165.285 86.2747 165.287C86.1947 165.287 86.195 165.527 86.275 165.527C86.895 165.526 87.4749 165.466 88.6149 165.464C89.6949 165.462 90.575 165.521 91.215 165.52C91.275 165.52 91.2747 165.28 91.2147 165.28C89.9147 165.282 89.9931 164.222 91.1905 162.46L93.0665 159.677L93.2265 159.677C93.6065 159.677 94.0664 159.656 94.6264 159.635L94.6326 163.855C94.6343 164.995 94.3347 165.276 92.9547 165.278C92.8947 165.278 92.895 165.518 92.955 165.518C93.655 165.517 94.6349 165.455 95.6749 165.454C96.5749 165.452 97.495 165.511 98.175 165.51C98.255 165.51 98.2547 165.27 98.1747 165.27C96.8147 165.272 96.5143 165.032 96.5126 163.892L96.5064 159.632C97.0664 159.652 97.5065 159.671 97.9065 159.67L98.0665 159.67L99.9906 162.507C101.193 164.245 101.235 165.265 99.9347 165.267C99.8747 165.267 99.875 165.507 99.935 165.507C100.575 165.506 101.455 165.445 102.515 165.444C103.675 165.442 104.255 165.501 104.875 165.5C104.955 165.5 104.955 165.26 104.875 165.26C103.515 165.262 102.294 164.564 101.131 163.026L98.5264 159.649C99.8662 159.527 100.265 158.927 101.802 156.765C103.419 154.502 104.257 153.281 105.677 153.239C105.757 153.239 105.757 152.999 105.677 152.999L102.777 153.003C102.317 153.004 102.237 153.024 99.9016 156.387C98.2251 158.77 98.0459 159.31 96.6659 159.312L96.5059 159.312L96.4991 154.632C96.4974 153.472 96.737 153.252 98.117 153.25C98.197 153.25 98.1967 153.01 98.1167 153.01C97.4367 153.011 96.5568 153.052 95.6568 153.054C94.6168 153.055 93.7167 153.016 93.0167 153.017C92.9367 153.018 92.9371 153.258 93.0171 153.257C94.3971 153.255 94.6174 153.475 94.6191 154.635L94.6259 159.315L94.4659 159.315C93.0859 159.317 92.9051 158.778 91.2216 156.38C88.8767 153.044 88.7967 153.024 88.3367 153.024L85.4367 153.029C85.3567 153.029 85.3571 153.269 85.4371 153.269Z" fill="#B29D8C"/>
<path d="M78.6848 157.987C79.1876 158.12 79.72 158.219 80.2626 158.279L79.2897 161.973C79.0299 162.959 78.7265 163.169 77.7401 162.909L76.8311 162.67C75.4193 162.298 74.6194 161.094 74.7745 159.17C74.7704 159.107 74.5577 159.051 74.5424 159.109L74.0023 161.945C73.9106 162.293 73.934 162.362 74.2435 162.443L82.1731 164.532C82.2311 164.547 82.2922 164.315 82.2342 164.299C80.9771 163.968 80.8254 163.68 81.1158 162.578L83.4742 153.623C83.7696 152.501 84.0578 152.35 85.3149 152.681C85.3922 152.701 85.4534 152.469 85.376 152.449C84.7184 152.276 83.8573 152.09 82.9676 151.856C82.0973 151.627 80.8127 151.164 80.1551 150.991C77.6989 150.344 75.5365 151.409 74.9813 153.517C74.37 155.838 76.1705 157.325 78.6848 157.987ZM80.4054 151.533C81.7399 151.884 81.806 152.419 81.6175 153.134L80.3797 157.834C80.0357 157.805 79.7018 157.738 79.4117 157.662C77.4776 157.152 76.4457 155.888 77.0671 153.528C77.5204 151.807 78.5294 151.039 80.4054 151.533Z" fill="#B29D8C"/>
<path d="M67.098 153.846C67.5564 154.092 68.0513 154.311 68.565 154.496L66.7231 157.934C66.1847 158.938 65.8409 159.072 64.5716 158.392C64.5011 158.354 64.3878 158.565 64.4583 158.603C65.0753 158.934 65.8793 159.297 66.8841 159.835C67.6951 160.27 68.3719 160.7 68.9713 161.021C69.0241 161.05 69.1375 160.838 69.0846 160.81C67.9387 160.196 67.8582 159.88 68.3966 158.876L72.77 150.713C73.3178 149.691 73.6333 149.61 74.7792 150.224C74.8497 150.262 74.963 150.051 74.8925 150.013C74.2931 149.692 73.4986 149.311 72.6876 148.877C71.8943 148.452 70.7522 147.704 70.1529 147.382C67.914 146.183 65.5636 146.716 64.534 148.638C63.4005 150.753 64.8063 152.618 67.098 153.846ZM60.9052 142.791C62.0687 143.414 62.1411 143.702 61.5933 144.725L57.2388 152.852C56.7004 153.857 56.3742 153.999 55.2283 153.385C55.1754 153.357 55.0621 153.569 55.115 153.597C55.6967 153.909 56.4831 154.262 57.3645 154.734C58.1931 155.178 58.9228 155.637 59.5222 155.958C59.5927 155.996 59.706 155.785 59.6355 155.747C58.4897 155.133 58.3915 154.808 58.9299 153.803L63.3033 145.641C63.8511 144.619 64.1666 144.538 65.3125 145.152C65.383 145.19 65.4963 144.978 65.4258 144.94C64.8264 144.619 64.0495 144.248 63.2209 143.804C62.3395 143.332 61.6356 142.91 61.0186 142.579C60.9657 142.551 60.8523 142.762 60.9052 142.791ZM70.2706 147.967C71.487 148.619 71.4271 149.154 71.0776 149.807L68.7823 154.09C68.4542 153.983 68.1451 153.84 67.8807 153.698C66.1178 152.754 65.4077 151.284 66.5601 149.133C67.4007 147.564 68.5606 147.051 70.2706 147.967Z" fill="#B29D8C"/>
</svg>
