<svg width="28" height="26" viewBox="0 0 28 26" fill="none" xmlns="http://www.w3.org/2000/svg">
<path d="M26.4489 3.98995L26.4491 3.9905C27.9384 7.12973 27.3828 10.7376 24.4926 14.829L24.4913 14.8309C22.2038 18.0902 18.9045 21.3627 14.0741 25.2237L14.0729 25.2247C14.0506 25.2425 14.0264 25.25 14.0042 25.25C13.982 25.25 13.9577 25.2425 13.9355 25.2247L13.9344 25.2238C9.09774 21.3558 5.80441 18.0548 3.51486 14.8277C0.616702 10.7368 0.0613417 7.12937 1.55049 3.9905L1.55075 3.98995C2.5664 1.84455 5.55899 0.00819112 9.13985 1.06437C10.85 1.573 12.3467 2.66486 13.3824 4.16683L13.9998 5.06232L14.6173 4.16683C15.653 2.66465 17.15 1.5727 18.8605 1.06416L18.8624 1.06357C22.4298 -0.00772398 25.4318 1.84157 26.4489 3.98995Z" stroke="#212121" stroke-width="1.5"/>
</svg>
