<svg width="332" height="332" viewBox="0 0 332 332" fill="none" xmlns="http://www.w3.org/2000/svg">
<path d="M145.139 223.613C142.469 222.731 139.295 222.163 136.434 221.859C136.074 221.86 135.954 221.86 135.858 222.149C135.668 222.726 135.861 222.99 135.062 225.408C133.799 229.232 133.584 229.642 132.369 229.2C132.116 229.117 131.986 229.634 132.202 229.705C135.245 230.55 137.698 231.361 140.947 232.673C141.199 232.757 141.39 232.18 141.101 232.084C137.782 230.988 137.66 230.508 138.804 227.044C140.032 223.327 141.292 223.023 144.035 223.929C149.519 225.74 151.928 232.018 149.521 239.307C147.614 245.08 143.837 248.035 138.821 246.378C134.997 245.115 132.668 241.865 132.212 237.672C132.164 237.456 131.815 237.421 131.767 237.566L130.58 242.736C130.449 243.253 130.462 243.457 130.847 243.745C132.088 244.835 134.567 246.054 136.732 246.769C144.526 249.343 152.004 246.45 154.34 239.378C156.449 232.991 153.33 226.318 145.139 223.613Z" fill="#B29D8C"/>
<path d="M115.903 205.314C118.248 207.249 118.41 211.769 117.051 222.669C114.529 222.262 111.842 222.951 110.318 224.798C108.383 227.142 109.297 230.213 112.902 233.188C114.192 234.252 115.802 235.286 116.975 236.254C118.381 237.415 119.569 238.543 120.595 239.389C120.683 239.462 120.973 239.11 120.885 239.037C119.097 237.562 119.095 236.968 120.473 235.298L131.672 221.728C133.075 220.029 133.664 219.972 135.451 221.448C135.569 221.544 135.859 221.193 135.742 221.096C134.716 220.249 133.378 219.244 131.971 218.083C130.476 216.849 129.294 215.775 128.268 214.928C128.18 214.856 127.89 215.207 127.978 215.28C129.795 216.779 129.793 217.32 128.39 219.019L122.778 225.819C122.333 225.402 121.747 224.919 121.19 224.459C120.956 224.266 120.751 224.096 120.492 223.932C121.921 215.455 122.289 209.994 121.41 209.268L116.193 204.963C116.105 204.89 115.815 205.242 115.903 205.314ZM122.077 226.669L117.239 232.53C116.126 233.878 115.198 234.048 113.85 232.936C112.297 231.654 111.753 229.924 114.607 226.466C116.978 223.594 118.422 223.455 120.474 225.149C120.943 225.536 121.622 226.145 122.077 226.669Z" fill="#B29D8C"/>
<path d="M105.015 184.648C105.63 185.74 105.122 187.161 102.852 190.488L91.222 207.939C91.0938 208.098 91.4065 208.576 91.5576 208.535L111.398 206.827C116.09 206.409 117.45 206.734 118.457 208.522C118.55 208.687 118.948 208.463 118.855 208.298C118.016 206.808 117.454 206.121 116.485 204.399C115.534 202.71 115.163 201.742 114.417 200.417C114.305 200.219 113.908 200.442 114.02 200.641C115.418 203.124 114.546 205.447 111.226 205.747L104.703 206.323L101.385 200.429L106.234 193.163C107.771 190.859 108.464 190.774 109.49 192.595C109.601 192.793 109.999 192.57 109.887 192.371C109.123 191.013 108.468 190.161 107.61 188.638C106.865 187.313 106.158 185.749 105.412 184.424C105.301 184.225 104.903 184.449 105.015 184.648ZM103.534 206.414L96.9783 207.009L100.719 201.414L103.534 206.414Z" fill="#B29D8C"/>
<path d="M79.221 163.834C79.3683 164.926 79.6642 166.266 79.8471 167.622C80.035 169.015 80.0795 170.198 80.2269 171.29C80.2421 171.403 80.694 171.342 80.6788 171.229C80.4146 169.271 81.9518 167.875 84.6255 167.514L96.7894 165.873L83.5212 180.93C82.2528 182.328 81.7306 182.437 81.817 183.077C81.9237 183.868 82.2073 185.402 82.4511 187.21C82.573 188.113 82.6501 189.253 82.7822 190.233C82.7975 190.346 83.2494 190.285 83.2341 190.172C83.0716 188.966 83.4565 187.841 85.0732 185.897L101.003 183.748C103.677 183.388 105.522 184.558 105.816 186.742C105.837 186.892 106.289 186.831 106.268 186.681C106.106 185.476 105.832 184.017 105.629 182.511C105.441 181.117 105.359 179.94 105.212 178.848C105.196 178.735 104.744 178.796 104.76 178.909C105.024 180.867 103.524 182.258 100.851 182.619L86.2012 184.595L103.928 164.22C103.994 164.135 103.91 163.801 103.76 163.821L84.4782 166.422C81.8044 166.783 79.9421 165.769 79.6729 163.773C79.6576 163.66 79.2057 163.721 79.221 163.834Z" fill="#B29D8C"/>
<path d="M82.3711 150.728C82.6905 149.319 83.2766 149.141 84.9072 149.51L102.065 153.402C104.215 153.89 104.505 154.501 103.916 157.095C103.883 157.243 104.327 157.344 104.361 157.196C104.68 155.788 105.01 153.992 105.455 152.028C105.926 149.953 106.387 148.265 106.706 146.857C106.74 146.708 106.295 146.607 106.261 146.756C105.656 149.424 105.156 149.739 103.007 149.252L85.9227 145.377C84.218 144.99 83.7664 144.576 84.1026 143.094C84.7583 140.203 87.0701 138.428 91.1293 138.57C91.286 138.566 91.37 138.196 91.2218 138.162C89.9618 137.876 85.4085 136.649 83.82 136.094C83.6347 136.052 83.5422 136.459 83.7191 136.538C84.4385 136.974 84.3934 137.86 83.99 139.639C83.5529 141.566 83.2606 143.37 82.4789 146.817C81.8485 149.596 81.2315 152.145 80.6782 154.24C80.5185 154.944 80.125 156.336 79.3839 156.168C79.1244 156.109 79.069 156.525 79.2914 156.575C81.1073 156.987 85.2109 158.308 86.5484 158.767C86.6966 158.8 86.8178 158.438 86.6779 158.368C83.3235 156.321 81.6819 153.766 82.3711 150.728Z" fill="#B29D8C"/>
<path d="M98.6753 112.341C97.998 113.305 97.2391 114.583 96.2122 116.044C95.098 117.63 93.9778 119.025 93.082 120.3C93.0165 120.393 93.3896 120.655 93.4551 120.562C95.0064 118.355 95.6635 118.213 97.4357 119.458L116.65 132.961C119.977 135.298 120.936 136.576 120.324 137.447C119.625 138.442 116.98 136.258 115.56 138.279C114.751 139.429 115.263 140.485 116.009 141.01C117.222 141.862 118.683 141.17 119.754 139.647C122.638 135.543 121.606 131.195 116.942 127.918L99.9667 115.989C98.1946 114.743 97.9341 114.189 99.0483 112.603C99.1357 112.479 98.7627 112.216 98.6753 112.341Z" fill="#B29D8C"/>
<path d="M126.905 109.359C128.367 112.64 127.682 115.348 124.74 117.986L123.806 118.824C122.901 119.635 122.048 119.481 121.059 118.378L115.325 111.984L117.645 109.904C119.908 107.874 121.959 107.771 123.329 109.298C123.405 109.383 123.744 109.079 123.668 108.994C122.704 107.919 121.858 107.146 120.996 106.184C120.311 105.421 119.857 104.858 118.741 103.613C118.639 103.5 118.328 103.779 118.429 103.892C119.622 105.222 119.198 107.082 116.963 109.087L114.615 111.192L109.439 105.421C108.526 104.403 108.604 103.465 109.735 102.45L110.584 101.689C112.932 99.5833 115.232 99.3586 117.833 101.007C117.991 101.07 118.223 100.759 118.147 100.674L114.716 96.9625C114.564 96.7927 114.431 96.7586 114.205 96.9616L102.21 107.719C102.097 107.82 102.401 108.159 102.514 108.058C104.24 106.51 104.827 106.596 106.273 108.209L118.02 121.307C119.491 122.948 119.487 123.513 117.762 125.061C117.649 125.162 117.953 125.502 118.066 125.4L130.571 114.187C130.91 113.882 130.893 113.693 130.614 113.382C129.473 112.109 128.143 110.341 127.295 109.111C127.219 109.026 126.831 109.22 126.905 109.359Z" fill="#B29D8C"/>
<path d="M152.579 79.1937C151.368 79.6428 150.766 79.9874 149.448 80.4761C147.666 81.1365 146.665 81.3862 145.417 81.8484C145.275 81.9013 145.433 82.3288 145.576 82.276C147.357 81.6156 148.841 83.2135 148.83 86.1355L148.791 100.132L141.173 92.7023L141.184 88.6861C141.196 85.4394 141.977 83.61 143.581 83.0156C143.687 82.976 143.529 82.5485 143.422 82.5881C142.353 82.9843 141.858 83.2893 140.683 83.7252C138.545 84.5176 139.04 84.2126 138.327 84.4768C138.184 84.5296 138.343 84.9572 138.485 84.9043C139.661 84.4685 140.137 85.7512 140.111 88.9623L140.105 91.6797L137.309 88.9472C135.085 86.7728 134.851 86.2515 136.134 85.7761C136.276 85.7232 136.118 85.2957 135.975 85.3485C135.191 85.6391 134.376 86.0629 131.704 87.0535C130.207 87.6082 130.167 87.5013 129.455 87.7655C129.312 87.8183 129.471 88.2459 129.613 88.1931C130.468 87.8761 131.502 88.5872 132.831 89.8776L139.89 96.7848L139.825 103.496L128.366 92.2623C126.141 90.0879 126.05 89.5138 128.01 88.7874C128.152 88.7346 127.994 88.307 127.851 88.3598C126.889 88.7164 125.896 89.2064 122.725 90.3818C120.943 91.0422 120.903 90.9353 120.084 91.2391C119.941 91.2919 120.1 91.7195 120.242 91.6667C121.596 91.1648 122.111 91.4603 123.888 93.1927L140.119 109.101C140.257 109.253 140.898 109.015 140.903 108.81L140.923 97.8205L149.063 105.786C149.2 105.938 149.841 105.7 149.847 105.495L149.914 85.4503C149.947 82.4794 150.992 80.2685 152.738 79.6213C152.845 79.5817 152.686 79.1541 152.579 79.1937Z" fill="#B29D8C"/>
<path d="M175.819 97.8356C174.64 101.23 172.287 102.735 168.336 102.646L167.082 102.618C165.867 102.59 165.35 101.895 165.384 100.413L165.577 91.8271L168.693 91.8974C171.732 91.9659 173.298 93.2936 173.252 95.3451C173.249 95.459 173.705 95.4693 173.708 95.3554C173.741 93.9117 173.652 92.7694 173.681 91.4778C173.705 90.452 173.759 89.7311 173.796 88.0595C173.8 87.9075 173.382 87.8981 173.379 88.0501C173.338 89.8356 171.756 90.9022 168.755 90.8345L165.601 90.7634L165.776 83.0133C165.807 81.6457 166.505 81.0153 168.025 81.0496L169.165 81.0753C172.318 81.1464 174.149 82.556 174.918 85.5381C174.99 85.6918 175.372 85.6244 175.374 85.5104L175.412 80.456C175.418 80.2281 175.344 80.1124 175.04 80.1055L158.932 79.7422C158.78 79.7387 158.77 80.1946 158.922 80.1981C161.239 80.2503 161.609 80.7148 161.56 82.8802L161.163 100.47C161.114 102.673 160.724 103.083 158.407 103.03C158.255 103.027 158.245 103.483 158.397 103.486L175.188 103.865C175.644 103.875 175.762 103.726 175.771 103.308C175.81 101.598 176.049 99.3992 176.273 97.9218C176.275 97.8079 175.86 97.6845 175.819 97.8356Z" fill="#B29D8C"/>
<path d="M188.819 86.2085C189.475 84.1441 189.987 83.7883 192.196 84.4899C192.341 84.5359 192.479 84.1013 192.334 84.0553C191.103 83.6642 189.511 83.2783 187.7 82.7032C185.961 82.1511 184.294 81.5018 183.135 81.1338C183.026 81.0993 182.888 81.5339 182.997 81.5684C185.206 82.27 185.466 82.8311 184.811 84.8955L179.485 101.664C178.818 103.765 178.293 104.037 176.084 103.335C175.975 103.301 175.837 103.735 175.946 103.77L193.04 109.199C193.439 109.325 193.63 109.226 193.756 108.828C194.354 106.945 195.329 104.503 195.98 102.956C196.026 102.811 195.687 102.623 195.605 102.757C193.618 105.873 189.958 107.103 186.191 105.907L184.96 105.516C183.185 104.952 182.988 104.571 183.551 102.796L188.819 86.2085Z" fill="#B29D8C"/>
<path d="M213.619 123.094C211.165 121.3 210.736 116.798 211.451 105.837C213.993 106.094 216.635 105.248 218.047 103.315C219.841 100.86 218.747 97.849 214.973 95.0914C213.623 94.1049 211.955 93.168 210.727 92.2712C209.255 91.1951 208.003 90.139 206.929 89.3543C206.837 89.287 206.568 89.6552 206.66 89.7225C208.531 91.0901 208.569 91.6825 207.291 93.4313L196.911 107.637C195.61 109.416 195.026 109.507 193.155 108.14C193.032 108.05 192.763 108.418 192.886 108.508C193.96 109.293 195.354 110.218 196.827 111.294C198.392 112.437 199.636 113.44 200.709 114.225C200.802 114.292 201.071 113.924 200.979 113.857C199.076 112.467 199.047 111.927 200.347 110.148L205.548 103.03C206.017 103.419 206.631 103.868 207.214 104.294C207.459 104.473 207.674 104.63 207.942 104.778C207.014 113.326 206.969 118.798 207.889 119.471L213.35 123.462C213.442 123.529 213.711 123.161 213.619 123.094ZM206.199 102.14L210.683 96.0037C211.714 94.5923 212.631 94.3681 214.042 95.3994C215.668 96.5876 216.313 98.2821 213.667 101.903C211.47 104.909 210.036 105.132 207.888 103.563C207.398 103.204 206.684 102.636 206.199 102.14Z" fill="#B29D8C"/>
<path d="M243.357 126.859C242.713 125.918 242.297 125.512 241.589 124.477C240.237 122.502 239.687 121.497 238.786 120.18C238.7 120.054 238.324 120.312 238.41 120.437C239.74 122.381 238.346 123.842 235.081 124.051L228.183 124.535L232.016 115.603C232.63 114.078 233.752 113.632 234.589 114.855C234.654 114.949 235.03 114.692 234.966 114.598C234.193 113.469 232.489 111.181 231.287 109.425C230.858 108.798 230.48 108.044 230.051 107.417C229.965 107.291 229.589 107.549 229.674 107.674C230.125 108.333 230.089 109.693 228.655 113.115L224.67 122.565L218.336 126.9C216.517 128.145 215.914 128.005 214.605 126.092C214.541 125.998 214.165 126.256 214.229 126.35C214.98 127.447 216.009 128.815 217.039 130.321C218.112 131.889 218.951 133.249 219.702 134.346C219.788 134.472 220.164 134.214 220.078 134.089C218.747 132.144 218.899 131.626 220.718 130.381L227.711 125.595L235.4 125.122C238.886 124.9 242.101 125.831 242.981 127.117C243.045 127.211 243.422 126.953 243.357 126.859Z" fill="#B29D8C"/>
<path d="M246.217 148.581C248.503 148.193 249.85 149.545 250.168 151.418C250.848 155.427 245.951 157.684 244.817 158.494C244.679 158.594 244.849 158.912 244.999 158.887L250.506 157.952C250.806 157.901 251.018 157.788 251.16 157.263C251.432 156.137 251.469 154.088 251.164 152.29C250.528 148.543 247.993 144.734 243.797 145.446C240.462 146.012 239.253 148.877 237.975 151.792C236.665 154.751 235.369 157.785 231.847 158.383C229.037 158.86 227.995 157.263 227.703 155.54C227.099 151.981 230.927 149.327 233.813 147.257C233.987 147.15 233.886 146.782 233.668 146.857L227.73 147.981C227.281 148.057 227.194 148.226 227.082 148.476C226.479 149.465 226.219 152.477 226.601 154.725C227.383 159.333 230.672 162.359 234.643 161.685C238.24 161.075 239.623 157.872 240.945 154.757C242.185 151.848 243.37 149.065 246.217 148.581Z" fill="#B29D8C"/>
<path d="M250.706 172.764C250.513 174.195 249.945 174.425 248.288 174.201L230.853 171.845C228.668 171.55 228.325 170.966 228.682 168.33C228.702 168.18 228.25 168.119 228.23 168.269C228.036 169.7 227.867 171.518 227.598 173.514C227.313 175.623 227.003 177.345 226.81 178.776C226.789 178.926 227.241 178.987 227.262 178.837C227.628 176.125 228.098 175.767 230.283 176.062L247.643 178.409C249.375 178.643 249.861 179.015 249.658 180.522C249.261 183.459 247.115 185.431 243.06 185.65C242.904 185.667 242.853 186.044 243.004 186.064C244.284 186.237 248.928 187.057 250.559 187.469C250.748 187.494 250.804 187.08 250.621 187.017C249.865 186.647 249.832 185.76 250.076 183.953C250.341 181.994 250.472 180.171 250.945 176.669C251.327 173.845 251.716 171.252 252.081 169.115C252.178 168.4 252.447 166.979 253.2 167.081C253.464 167.117 253.482 166.697 253.256 166.667C251.411 166.417 247.206 165.466 245.833 165.127C245.683 165.106 245.594 165.478 245.74 165.536C249.262 167.277 251.124 169.676 250.706 172.764Z" fill="#B29D8C"/>
<path d="M220.531 194.314C217.041 200.635 218.907 208.654 225.094 212.071C230.45 215.028 237.825 213.935 241.444 207.382C244.42 201.993 244.351 193.707 237.132 189.721C231.278 186.488 224.058 187.927 220.531 194.314ZM220.757 195.871C223.163 191.514 229.584 190.892 236.104 194.492C241.493 197.468 243.522 201.497 241.281 205.556C238.617 210.379 232.476 210.808 226.389 207.446C220.468 204.176 218.718 199.564 220.757 195.871Z" fill="#B29D8C"/>
<path d="M195.199 222.467C197.555 220.547 202.019 221.272 212.442 224.739C211.55 227.133 211.699 229.903 213.212 231.759C215.132 234.115 218.322 233.819 221.946 230.867C223.242 229.811 224.571 228.434 225.749 227.473C227.163 226.321 228.502 225.377 229.533 224.537C229.621 224.465 229.333 224.112 229.245 224.184C227.448 225.648 226.865 225.534 225.497 223.855L214.382 210.216C212.99 208.508 213.05 207.92 214.847 206.456C214.965 206.36 214.677 206.006 214.559 206.102C213.528 206.942 212.28 208.057 210.866 209.21C209.364 210.434 208.078 211.383 207.047 212.223C206.959 212.295 207.247 212.649 207.335 212.577C209.162 211.089 209.691 211.196 211.083 212.905L216.652 219.739C216.157 220.094 215.568 220.574 215.008 221.03C214.773 221.222 214.566 221.39 214.355 221.612C206.321 218.55 201.038 217.12 200.154 217.841L194.911 222.113C194.822 222.185 195.11 222.539 195.199 222.467ZM217.349 220.594L222.15 226.485C223.254 227.84 223.239 228.784 221.883 229.888C220.322 231.16 218.52 231.355 215.687 227.879C213.335 224.992 213.482 223.548 215.544 221.868C216.015 221.484 216.746 220.937 217.349 220.594Z" fill="#B29D8C"/>
<path d="M182.347 232.272C182.165 228.683 183.78 226.405 187.476 225.004L188.648 224.559C189.785 224.128 190.525 224.579 191.05 225.965L194.095 233.995L191.181 235.1C188.339 236.178 186.388 235.535 185.661 233.617C185.62 233.51 185.194 233.672 185.234 233.778C185.746 235.128 186.257 236.154 186.715 237.362C187.079 238.321 187.299 239.01 187.892 240.573C187.946 240.716 188.337 240.567 188.283 240.425C187.65 238.755 188.716 237.173 191.523 236.108L194.472 234.99L197.22 242.239C197.705 243.518 197.294 244.365 195.873 244.903L194.807 245.307C191.858 246.426 189.632 245.806 187.799 243.331C187.675 243.216 187.346 243.422 187.387 243.528L189.249 248.227C189.33 248.441 189.442 248.52 189.726 248.412L204.791 242.701C204.934 242.647 204.772 242.221 204.63 242.274C202.462 243.096 201.945 242.804 201.178 240.779L194.941 224.328C194.159 222.267 194.366 221.741 196.534 220.92C196.676 220.866 196.514 220.439 196.372 220.493L180.667 226.447C180.241 226.609 180.188 226.791 180.336 227.182C180.942 228.781 181.546 230.909 181.894 232.363C181.934 232.469 182.365 232.428 182.347 232.272Z" fill="#B29D8C"/>
<mask id="mask0_253_687" style="mask-type:alpha" maskUnits="userSpaceOnUse" x="78" y="79" width="176" height="173">
<path d="M145.139 223.613C142.469 222.731 139.295 222.163 136.434 221.859C136.074 221.86 135.954 221.86 135.858 222.149C135.668 222.726 135.861 222.99 135.062 225.408C133.799 229.232 133.584 229.642 132.369 229.2C132.116 229.117 131.986 229.634 132.202 229.705C135.245 230.55 137.698 231.361 140.947 232.673C141.199 232.757 141.39 232.18 141.101 232.084C137.782 230.988 137.66 230.508 138.804 227.044C140.032 223.327 141.292 223.023 144.035 223.929C149.519 225.74 151.928 232.018 149.521 239.307C147.614 245.08 143.837 248.035 138.821 246.378C134.997 245.115 132.668 241.865 132.212 237.672C132.164 237.456 131.815 237.421 131.767 237.566L130.58 242.736C130.449 243.253 130.462 243.457 130.847 243.745C132.088 244.835 134.567 246.054 136.732 246.769C144.526 249.343 152.004 246.45 154.34 239.378C156.449 232.991 153.33 226.318 145.139 223.613Z" fill="#212121"/>
<path d="M115.903 205.314C118.248 207.249 118.41 211.769 117.051 222.669C114.529 222.262 111.842 222.951 110.318 224.798C108.383 227.142 109.297 230.213 112.902 233.188C114.192 234.252 115.802 235.286 116.975 236.254C118.381 237.415 119.569 238.543 120.595 239.389C120.683 239.462 120.973 239.11 120.885 239.037C119.097 237.562 119.095 236.968 120.473 235.298L131.672 221.728C133.075 220.029 133.664 219.972 135.451 221.448C135.569 221.544 135.859 221.193 135.742 221.096C134.716 220.249 133.378 219.244 131.971 218.083C130.476 216.849 129.294 215.775 128.268 214.928C128.18 214.856 127.89 215.207 127.978 215.28C129.795 216.779 129.793 217.32 128.39 219.019L122.778 225.819C122.333 225.402 121.747 224.919 121.19 224.459C120.956 224.266 120.751 224.096 120.492 223.932C121.921 215.455 122.289 209.994 121.41 209.268L116.193 204.963C116.105 204.89 115.815 205.242 115.903 205.314ZM122.077 226.669L117.239 232.53C116.126 233.878 115.198 234.048 113.85 232.936C112.297 231.654 111.753 229.924 114.607 226.466C116.978 223.594 118.422 223.455 120.474 225.149C120.943 225.536 121.622 226.145 122.077 226.669Z" fill="#212121"/>
<path d="M105.015 184.648C105.63 185.74 105.122 187.161 102.852 190.488L91.222 207.939C91.0938 208.098 91.4065 208.576 91.5576 208.535L111.398 206.827C116.09 206.409 117.45 206.734 118.457 208.522C118.55 208.687 118.948 208.463 118.855 208.298C118.016 206.808 117.454 206.121 116.485 204.399C115.534 202.71 115.163 201.742 114.417 200.417C114.305 200.219 113.908 200.442 114.02 200.641C115.418 203.124 114.546 205.447 111.226 205.747L104.703 206.323L101.385 200.429L106.234 193.163C107.771 190.859 108.464 190.774 109.49 192.595C109.601 192.793 109.999 192.57 109.887 192.371C109.123 191.013 108.468 190.161 107.61 188.638C106.865 187.313 106.158 185.749 105.412 184.424C105.301 184.225 104.903 184.449 105.015 184.648ZM103.534 206.414L96.9783 207.009L100.719 201.414L103.534 206.414Z" fill="#212121"/>
<path d="M79.221 163.834C79.3683 164.926 79.6642 166.266 79.8471 167.622C80.035 169.015 80.0795 170.198 80.2269 171.29C80.2421 171.403 80.694 171.342 80.6788 171.229C80.4146 169.271 81.9518 167.875 84.6255 167.514L96.7894 165.873L83.5212 180.93C82.2528 182.328 81.7306 182.437 81.817 183.077C81.9237 183.868 82.2073 185.402 82.4511 187.21C82.573 188.113 82.6501 189.253 82.7822 190.233C82.7975 190.346 83.2494 190.285 83.2341 190.172C83.0716 188.966 83.4565 187.841 85.0732 185.897L101.003 183.748C103.677 183.388 105.522 184.558 105.816 186.742C105.837 186.892 106.289 186.831 106.268 186.681C106.106 185.476 105.832 184.017 105.629 182.511C105.441 181.117 105.359 179.94 105.212 178.848C105.196 178.735 104.744 178.796 104.76 178.909C105.024 180.867 103.524 182.258 100.851 182.619L86.2012 184.595L103.928 164.22C103.994 164.135 103.91 163.801 103.76 163.821L84.4782 166.422C81.8044 166.783 79.9421 165.769 79.6729 163.773C79.6576 163.66 79.2057 163.721 79.221 163.834Z" fill="#212121"/>
<path d="M82.3711 150.728C82.6905 149.319 83.2766 149.141 84.9072 149.51L102.065 153.402C104.215 153.89 104.505 154.501 103.916 157.095C103.883 157.243 104.327 157.344 104.361 157.196C104.68 155.788 105.01 153.992 105.455 152.028C105.926 149.953 106.387 148.265 106.706 146.857C106.74 146.708 106.295 146.607 106.261 146.756C105.656 149.424 105.156 149.739 103.007 149.252L85.9227 145.377C84.218 144.99 83.7664 144.576 84.1026 143.094C84.7583 140.203 87.0701 138.428 91.1293 138.57C91.286 138.566 91.37 138.196 91.2218 138.162C89.9618 137.876 85.4085 136.649 83.82 136.094C83.6347 136.052 83.5422 136.459 83.7191 136.538C84.4385 136.974 84.3934 137.86 83.99 139.639C83.5529 141.566 83.2606 143.37 82.4789 146.817C81.8485 149.596 81.2315 152.145 80.6782 154.24C80.5185 154.944 80.125 156.336 79.3839 156.168C79.1244 156.109 79.069 156.525 79.2914 156.575C81.1073 156.987 85.2109 158.308 86.5484 158.767C86.6966 158.8 86.8178 158.438 86.6779 158.368C83.3235 156.321 81.6819 153.766 82.3711 150.728Z" fill="#212121"/>
<path d="M98.6753 112.341C97.998 113.305 97.2391 114.583 96.2122 116.044C95.098 117.63 93.9778 119.025 93.082 120.3C93.0165 120.393 93.3896 120.655 93.4551 120.562C95.0064 118.355 95.6635 118.213 97.4357 119.458L116.65 132.961C119.977 135.298 120.936 136.576 120.324 137.447C119.625 138.442 116.98 136.258 115.56 138.279C114.751 139.429 115.263 140.485 116.009 141.01C117.222 141.862 118.683 141.17 119.754 139.647C122.638 135.543 121.606 131.195 116.942 127.918L99.9667 115.989C98.1946 114.743 97.9341 114.189 99.0483 112.603C99.1357 112.479 98.7627 112.216 98.6753 112.341Z" fill="#212121"/>
<path d="M126.905 109.359C128.367 112.64 127.682 115.348 124.74 117.986L123.806 118.824C122.901 119.635 122.048 119.481 121.059 118.378L115.325 111.984L117.645 109.904C119.908 107.874 121.959 107.771 123.329 109.298C123.405 109.383 123.744 109.079 123.668 108.994C122.704 107.919 121.858 107.146 120.996 106.184C120.311 105.421 119.857 104.858 118.741 103.613C118.639 103.5 118.328 103.779 118.429 103.892C119.622 105.222 119.198 107.082 116.963 109.087L114.615 111.192L109.439 105.421C108.526 104.403 108.604 103.465 109.735 102.45L110.584 101.689C112.932 99.5833 115.232 99.3586 117.833 101.007C117.991 101.07 118.223 100.759 118.147 100.674L114.716 96.9625C114.564 96.7927 114.431 96.7586 114.205 96.9616L102.21 107.719C102.097 107.82 102.401 108.159 102.514 108.058C104.24 106.51 104.827 106.596 106.273 108.209L118.02 121.307C119.491 122.948 119.487 123.513 117.762 125.061C117.649 125.162 117.953 125.502 118.066 125.4L130.571 114.187C130.91 113.882 130.893 113.693 130.614 113.382C129.473 112.109 128.143 110.341 127.295 109.111C127.219 109.026 126.831 109.22 126.905 109.359Z" fill="#212121"/>
<path d="M152.579 79.1937C151.368 79.6428 150.766 79.9874 149.448 80.4761C147.666 81.1365 146.665 81.3862 145.417 81.8484C145.275 81.9013 145.433 82.3288 145.576 82.276C147.357 81.6156 148.841 83.2135 148.83 86.1355L148.791 100.132L141.173 92.7023L141.184 88.6861C141.196 85.4394 141.977 83.61 143.581 83.0156C143.687 82.976 143.529 82.5485 143.422 82.5881C142.353 82.9843 141.858 83.2893 140.683 83.7252C138.545 84.5176 139.04 84.2126 138.327 84.4768C138.184 84.5296 138.343 84.9572 138.485 84.9043C139.661 84.4685 140.137 85.7512 140.111 88.9623L140.105 91.6797L137.309 88.9472C135.085 86.7728 134.851 86.2515 136.134 85.7761C136.276 85.7232 136.118 85.2957 135.975 85.3485C135.191 85.6391 134.376 86.0629 131.704 87.0535C130.207 87.6082 130.167 87.5013 129.455 87.7655C129.312 87.8183 129.471 88.2459 129.613 88.1931C130.468 87.8761 131.502 88.5872 132.831 89.8776L139.89 96.7848L139.825 103.496L128.366 92.2623C126.141 90.0879 126.05 89.5138 128.01 88.7874C128.152 88.7346 127.994 88.307 127.851 88.3598C126.889 88.7164 125.896 89.2064 122.725 90.3818C120.943 91.0422 120.903 90.9353 120.084 91.2391C119.941 91.2919 120.1 91.7195 120.242 91.6667C121.596 91.1648 122.111 91.4603 123.888 93.1927L140.119 109.101C140.257 109.253 140.898 109.015 140.903 108.81L140.923 97.8205L149.063 105.786C149.2 105.938 149.841 105.7 149.847 105.495L149.914 85.4503C149.947 82.4794 150.992 80.2685 152.738 79.6213C152.845 79.5817 152.686 79.1541 152.579 79.1937Z" fill="#212121"/>
<path d="M175.819 97.8356C174.64 101.23 172.287 102.735 168.336 102.646L167.082 102.618C165.867 102.59 165.35 101.895 165.384 100.413L165.577 91.8271L168.693 91.8974C171.732 91.9659 173.298 93.2936 173.252 95.3451C173.249 95.459 173.705 95.4693 173.708 95.3554C173.741 93.9117 173.652 92.7694 173.681 91.4778C173.705 90.452 173.759 89.7311 173.796 88.0595C173.8 87.9075 173.382 87.8981 173.379 88.0501C173.338 89.8356 171.756 90.9022 168.755 90.8345L165.601 90.7634L165.776 83.0133C165.807 81.6457 166.505 81.0153 168.025 81.0496L169.165 81.0753C172.318 81.1464 174.149 82.556 174.918 85.5381C174.99 85.6918 175.372 85.6244 175.374 85.5104L175.412 80.456C175.418 80.2281 175.344 80.1124 175.04 80.1055L158.932 79.7422C158.78 79.7387 158.77 80.1946 158.922 80.1981C161.239 80.2503 161.609 80.7148 161.56 82.8802L161.163 100.47C161.114 102.673 160.724 103.083 158.407 103.03C158.255 103.027 158.245 103.483 158.397 103.486L175.188 103.865C175.644 103.875 175.762 103.726 175.771 103.308C175.81 101.598 176.049 99.3992 176.273 97.9218C176.275 97.8079 175.86 97.6845 175.819 97.8356Z" fill="#212121"/>
<path d="M188.819 86.2085C189.475 84.1441 189.987 83.7883 192.196 84.4899C192.341 84.5359 192.479 84.1013 192.334 84.0553C191.103 83.6642 189.511 83.2783 187.7 82.7032C185.961 82.1511 184.294 81.5018 183.135 81.1338C183.026 81.0993 182.888 81.5339 182.997 81.5684C185.206 82.27 185.466 82.8311 184.811 84.8955L179.485 101.664C178.818 103.765 178.293 104.037 176.084 103.335C175.975 103.301 175.837 103.735 175.946 103.77L193.04 109.199C193.439 109.325 193.63 109.226 193.756 108.828C194.354 106.945 195.329 104.503 195.98 102.956C196.026 102.811 195.687 102.623 195.605 102.757C193.618 105.873 189.958 107.103 186.191 105.907L184.96 105.516C183.185 104.952 182.988 104.571 183.551 102.796L188.819 86.2085Z" fill="#212121"/>
<path d="M213.619 123.094C211.165 121.3 210.736 116.798 211.451 105.837C213.993 106.094 216.635 105.248 218.047 103.315C219.841 100.86 218.747 97.849 214.973 95.0914C213.623 94.1049 211.955 93.168 210.727 92.2712C209.255 91.1951 208.003 90.139 206.929 89.3543C206.837 89.287 206.568 89.6552 206.66 89.7225C208.531 91.0901 208.569 91.6825 207.291 93.4313L196.911 107.637C195.61 109.416 195.026 109.507 193.155 108.14C193.032 108.05 192.763 108.418 192.886 108.508C193.96 109.293 195.354 110.218 196.827 111.294C198.392 112.437 199.636 113.44 200.709 114.225C200.802 114.292 201.071 113.924 200.979 113.857C199.076 112.467 199.047 111.927 200.347 110.148L205.548 103.03C206.017 103.419 206.631 103.868 207.214 104.294C207.459 104.473 207.674 104.63 207.942 104.778C207.014 113.326 206.969 118.798 207.889 119.471L213.35 123.462C213.442 123.529 213.711 123.161 213.619 123.094ZM206.199 102.14L210.683 96.0037C211.714 94.5923 212.631 94.3681 214.042 95.3994C215.668 96.5876 216.313 98.2821 213.667 101.903C211.47 104.909 210.036 105.132 207.888 103.563C207.398 103.204 206.684 102.636 206.199 102.14Z" fill="#212121"/>
<path d="M243.357 126.859C242.713 125.918 242.297 125.512 241.589 124.477C240.237 122.502 239.687 121.497 238.786 120.18C238.7 120.054 238.324 120.312 238.41 120.437C239.74 122.381 238.346 123.842 235.081 124.051L228.183 124.535L232.016 115.603C232.63 114.078 233.752 113.632 234.589 114.855C234.654 114.949 235.03 114.692 234.966 114.598C234.193 113.469 232.489 111.181 231.287 109.425C230.858 108.798 230.48 108.044 230.051 107.417C229.965 107.291 229.589 107.549 229.674 107.674C230.125 108.333 230.089 109.693 228.655 113.115L224.67 122.565L218.336 126.9C216.517 128.145 215.914 128.005 214.605 126.092C214.541 125.998 214.165 126.256 214.229 126.35C214.98 127.447 216.009 128.815 217.039 130.321C218.112 131.889 218.951 133.249 219.702 134.346C219.788 134.472 220.164 134.214 220.078 134.089C218.747 132.144 218.899 131.626 220.718 130.381L227.711 125.595L235.4 125.122C238.886 124.9 242.101 125.831 242.981 127.117C243.045 127.211 243.422 126.953 243.357 126.859Z" fill="#212121"/>
<path d="M246.217 148.581C248.503 148.193 249.85 149.545 250.168 151.418C250.848 155.427 245.951 157.684 244.817 158.494C244.679 158.594 244.849 158.912 244.999 158.887L250.506 157.952C250.806 157.901 251.018 157.788 251.16 157.263C251.432 156.137 251.469 154.088 251.164 152.29C250.528 148.543 247.993 144.734 243.797 145.446C240.462 146.012 239.253 148.877 237.975 151.792C236.665 154.751 235.369 157.785 231.847 158.383C229.037 158.86 227.995 157.263 227.703 155.54C227.099 151.981 230.927 149.327 233.813 147.257C233.987 147.15 233.886 146.782 233.668 146.857L227.73 147.981C227.281 148.057 227.194 148.226 227.082 148.476C226.479 149.465 226.219 152.477 226.601 154.725C227.383 159.333 230.672 162.359 234.643 161.685C238.24 161.075 239.623 157.872 240.945 154.757C242.185 151.848 243.37 149.065 246.217 148.581Z" fill="#212121"/>
<path d="M250.706 172.764C250.513 174.195 249.945 174.425 248.288 174.201L230.853 171.845C228.668 171.55 228.325 170.966 228.682 168.33C228.702 168.18 228.25 168.119 228.23 168.269C228.036 169.7 227.867 171.518 227.598 173.514C227.313 175.623 227.003 177.345 226.81 178.776C226.789 178.926 227.241 178.987 227.262 178.837C227.628 176.125 228.098 175.767 230.283 176.062L247.643 178.409C249.375 178.643 249.861 179.015 249.658 180.522C249.261 183.459 247.115 185.431 243.06 185.65C242.904 185.667 242.853 186.044 243.004 186.064C244.284 186.237 248.928 187.057 250.559 187.469C250.748 187.494 250.804 187.08 250.621 187.017C249.865 186.647 249.832 185.76 250.076 183.953C250.341 181.994 250.472 180.171 250.945 176.669C251.327 173.845 251.716 171.252 252.081 169.115C252.178 168.4 252.447 166.979 253.2 167.081C253.464 167.117 253.482 166.697 253.256 166.667C251.411 166.417 247.206 165.466 245.833 165.127C245.683 165.106 245.594 165.478 245.74 165.536C249.262 167.277 251.124 169.676 250.706 172.764Z" fill="#212121"/>
<path d="M220.531 194.314C217.041 200.635 218.907 208.654 225.094 212.071C230.45 215.028 237.825 213.935 241.444 207.382C244.42 201.993 244.351 193.707 237.132 189.721C231.278 186.488 224.058 187.927 220.531 194.314ZM220.757 195.871C223.163 191.514 229.584 190.892 236.104 194.492C241.493 197.468 243.522 201.497 241.281 205.556C238.617 210.379 232.476 210.808 226.389 207.446C220.468 204.176 218.718 199.564 220.757 195.871Z" fill="#212121"/>
<path d="M195.199 222.467C197.555 220.547 202.019 221.272 212.442 224.739C211.55 227.133 211.699 229.903 213.212 231.759C215.132 234.115 218.322 233.819 221.946 230.867C223.242 229.811 224.571 228.434 225.749 227.473C227.163 226.321 228.502 225.377 229.533 224.537C229.621 224.465 229.333 224.112 229.245 224.184C227.448 225.648 226.865 225.534 225.497 223.855L214.382 210.216C212.99 208.508 213.05 207.92 214.847 206.456C214.965 206.36 214.677 206.006 214.559 206.102C213.528 206.942 212.28 208.057 210.866 209.21C209.364 210.434 208.078 211.383 207.047 212.223C206.959 212.295 207.247 212.649 207.335 212.577C209.162 211.089 209.691 211.196 211.083 212.905L216.652 219.739C216.157 220.094 215.568 220.574 215.008 221.03C214.773 221.222 214.566 221.39 214.355 221.612C206.321 218.55 201.038 217.12 200.154 217.841L194.911 222.113C194.822 222.185 195.11 222.539 195.199 222.467ZM217.349 220.594L222.15 226.485C223.254 227.84 223.239 228.784 221.883 229.888C220.322 231.16 218.52 231.355 215.687 227.879C213.335 224.992 213.482 223.548 215.544 221.868C216.015 221.484 216.746 220.937 217.349 220.594Z" fill="#212121"/>
<path d="M182.347 232.272C182.165 228.683 183.78 226.405 187.476 225.004L188.648 224.559C189.785 224.128 190.525 224.579 191.05 225.965L194.095 233.995L191.181 235.1C188.339 236.178 186.388 235.535 185.661 233.617C185.62 233.51 185.194 233.672 185.234 233.778C185.746 235.128 186.257 236.154 186.715 237.362C187.079 238.321 187.299 239.01 187.892 240.573C187.946 240.716 188.337 240.567 188.283 240.425C187.65 238.755 188.716 237.173 191.523 236.108L194.472 234.99L197.22 242.239C197.705 243.518 197.294 244.365 195.873 244.903L194.807 245.307C191.858 246.426 189.632 245.806 187.799 243.331C187.675 243.216 187.346 243.422 187.387 243.528L189.249 248.227C189.33 248.441 189.442 248.52 189.726 248.412L204.791 242.701C204.934 242.647 204.772 242.221 204.63 242.274C202.462 243.096 201.945 242.804 201.178 240.779L194.941 224.328C194.159 222.267 194.366 221.741 196.534 220.92C196.676 220.866 196.514 220.439 196.372 220.493L180.667 226.447C180.241 226.609 180.188 226.791 180.336 227.182C180.942 228.781 181.546 230.909 181.894 232.363C181.934 232.469 182.365 232.428 182.347 232.272Z" fill="#212121"/>
</mask>
<g mask="url(#mask0_253_687)">
<rect x="156" y="11" width="133" height="155" fill="white"/>
</g>
</svg>
