<svg width="38" height="34" viewBox="0 0 38 34" fill="none" xmlns="http://www.w3.org/2000/svg">
<path fill-rule="evenodd" clip-rule="evenodd" d="M19.6918 1.06984C19.9124 0.848698 20.1744 0.673242 20.4629 0.553527C20.7514 0.433812 21.0607 0.372192 21.3731 0.372192C21.6854 0.372192 21.9947 0.433812 22.2832 0.553527C22.5717 0.673242 22.8338 0.848698 23.0543 1.06984L37.3024 15.3179C37.5236 15.5385 37.699 15.8006 37.8188 16.0891C37.9385 16.3776 38.0001 16.6869 38.0001 16.9992C38.0001 17.3116 37.9385 17.6209 37.8188 17.9094C37.699 18.1979 37.5236 18.4599 37.3024 18.6805L23.0543 32.9286C22.6084 33.3745 22.0037 33.625 21.3731 33.625C20.7425 33.625 20.1377 33.3745 19.6918 32.9286C19.2459 32.4827 18.9954 31.8779 18.9954 31.2473C18.9954 30.6167 19.2459 30.0119 19.6918 29.566L32.2634 16.9992L19.6918 4.4324C19.4706 4.21181 19.2952 3.94976 19.1755 3.66126C19.0558 3.37276 18.9941 3.06347 18.9941 2.75112C18.9941 2.43877 19.0558 2.12948 19.1755 1.84098C19.2952 1.55248 19.4706 1.29043 19.6918 1.06984Z" fill="#212121"/>
<path fill-rule="evenodd" clip-rule="evenodd" d="M0 16.9997C0 16.3699 0.25019 15.7659 0.695529 15.3205C1.14087 14.8752 1.74488 14.625 2.37468 14.625H33.2456C33.8754 14.625 34.4794 14.8752 34.9247 15.3205C35.3701 15.7659 35.6203 16.3699 35.6203 16.9997C35.6203 17.6295 35.3701 18.2335 34.9247 18.6788C34.4794 19.1242 33.8754 19.3744 33.2456 19.3744H2.37468C1.74488 19.3744 1.14087 19.1242 0.695529 18.6788C0.25019 18.2335 0 17.6295 0 16.9997Z" fill="#212121"/>
</svg>
