<svg width="26" height="26" viewBox="0 0 26 26" fill="none" xmlns="http://www.w3.org/2000/svg">
<g clip-path="url(#clip0_253_809)">
<path d="M13 1.625C13.6602 1.625 14.3415 1.75618 15.0439 2.01855C15.7464 2.28092 16.36 2.611 16.8848 3.00879C17.4095 3.40658 17.8411 3.84668 18.1797 4.3291C18.5182 4.81152 18.6875 5.26432 18.6875 5.6875V9.75C18.6875 10.7148 18.4844 11.7897 18.0781 12.9746C17.6719 14.1595 17.071 15.0566 16.2754 15.666C16.14 15.7845 16.0215 15.9242 15.9199 16.085C15.8184 16.2458 15.7464 16.415 15.7041 16.5928C15.6618 16.7705 15.6491 16.9525 15.666 17.1387C15.7507 17.748 16.0638 18.1797 16.6055 18.4336L23.6895 21.7852L23.7402 21.7979L23.8418 21.8359L23.9688 21.9121L24.1084 22.0264L24.2354 22.1914L24.3242 22.4453L24.3496 22.7754V24.3496L1.625 24.375V22.7246C1.625 22.3014 1.85352 21.9883 2.31055 21.7852L9.44531 18.4082C9.98698 18.1543 10.2959 17.7269 10.3721 17.126C10.4482 16.5251 10.2493 16.0384 9.77539 15.666C8.99675 15.0397 8.3916 14.1299 7.95996 12.9365C7.52832 11.7432 7.3125 10.681 7.3125 9.75V5.6875C7.3125 5.12891 7.5918 4.53223 8.15039 3.89746C8.70898 3.2627 9.43685 2.72526 10.334 2.28516C11.2311 1.84505 12.1198 1.625 13 1.625ZM13 0C11.832 0 10.6768 0.283529 9.53418 0.850586C8.3916 1.41764 7.46484 2.14551 6.75391 3.03418C6.04297 3.92285 5.6875 4.80729 5.6875 5.6875V9.75C5.6875 10.8503 5.94564 12.1156 6.46191 13.5459C6.97819 14.9762 7.74414 16.1061 8.75977 16.9355L1.625 20.3125C1.57422 20.3294 1.51497 20.3548 1.44727 20.3887C1.37956 20.4225 1.2526 20.4987 1.06641 20.6172C0.880208 20.7357 0.715169 20.8542 0.571289 20.9727C0.427409 21.0911 0.296224 21.2393 0.177734 21.417C0.0592448 21.5947 0 21.7598 0 21.9121V24.375C0 24.8151 0.156576 25.1917 0.469727 25.5049C0.782878 25.818 1.16797 25.9746 1.625 25.9746H24.375C24.8151 25.9746 25.1917 25.818 25.5049 25.5049C25.818 25.1917 25.9746 24.8151 25.9746 24.375V21.9121C25.9746 21.7428 25.9196 21.5693 25.8096 21.3916C25.6995 21.2139 25.5641 21.0615 25.4033 20.9346C25.2425 20.8076 25.0859 20.6934 24.9336 20.5918C24.7812 20.4902 24.6458 20.4141 24.5273 20.3633L24.375 20.3125L17.291 16.9355C18.3066 16.14 19.0641 15.0397 19.5635 13.6348C20.0628 12.2298 20.3125 10.9349 20.3125 9.75V5.6875C20.3125 5.02734 20.0967 4.35449 19.665 3.66895C19.2334 2.9834 18.679 2.36979 18.002 1.82812C17.3249 1.28646 16.5378 0.846354 15.6406 0.507812C14.7435 0.169271 13.8633 0 13 0Z" fill="#212121"/>
</g>
<defs>
<clipPath id="clip0_253_809">
<rect width="26" height="26" fill="white"/>
</clipPath>
</defs>
</svg>
