<svg width="38" height="38" viewBox="0 0 38 38" fill="none" xmlns="http://www.w3.org/2000/svg">
<g opacity="0.5" clip-path="url(#clip0_253_910)">
<path fill-rule="evenodd" clip-rule="evenodd" d="M18.3082 34.9302C18.0876 35.1513 17.8256 35.3268 17.5371 35.4465C17.2486 35.5662 16.9393 35.6278 16.6269 35.6278C16.3146 35.6278 16.0053 35.5662 15.7168 35.4465C15.4283 35.3268 15.1662 35.1513 14.9457 34.9302L0.697559 20.6821C0.476414 20.4615 0.300961 20.1994 0.181246 19.9109C0.0615311 19.6224 -9.15527e-05 19.3131 -9.15527e-05 19.0008C-9.15527e-05 18.6884 0.0615311 18.3791 0.181246 18.0906C0.300961 17.8021 0.476414 17.5401 0.697559 17.3195L14.9457 3.07141C15.3916 2.6255 15.9963 2.375 16.6269 2.375C17.2575 2.375 17.8623 2.6255 18.3082 3.07141C18.7541 3.51731 19.0046 4.12208 19.0046 4.75268C19.0046 5.38328 18.7541 5.98806 18.3082 6.43396L5.73664 19.0008L18.3082 31.5676C18.5294 31.7882 18.7048 32.0502 18.8245 32.3387C18.9442 32.6272 19.0059 32.9365 19.0059 33.2489C19.0059 33.5612 18.9442 33.8705 18.8245 34.159C18.7048 34.4475 18.5294 34.7096 18.3082 34.9302Z" fill="#212121"/>
<path fill-rule="evenodd" clip-rule="evenodd" d="M38 19.0003C38 19.6301 37.7498 20.2341 37.3045 20.6795C36.8591 21.1248 36.2551 21.375 35.6253 21.375L4.75443 21.375C4.12463 21.375 3.52061 21.1248 3.07528 20.6795C2.62994 20.2341 2.37975 19.6301 2.37975 19.0003C2.37975 18.3705 2.62994 17.7665 3.07528 17.3212C3.52061 16.8758 4.12463 16.6256 4.75443 16.6256L35.6253 16.6256C36.2551 16.6256 36.8591 16.8758 37.3045 17.3212C37.7498 17.7665 38 18.3705 38 19.0003Z" fill="#212121"/>
</g>
<defs>
<clipPath id="clip0_253_910">
<rect width="38" height="38" fill="white" transform="matrix(-1 0 0 -1 38 38)"/>
</clipPath>
</defs>
</svg>
