<svg width="190" height="190" viewBox="0 0 190 190" fill="none" xmlns="http://www.w3.org/2000/svg">
<path d="M38.6413 107.889C38.5417 107.216 38.3703 106.332 38.2325 105.402C38.0333 104.057 37.9264 103.062 37.7974 102.191C37.7886 102.132 37.5512 102.167 37.56 102.226C37.8413 104.126 37.631 104.48 36.444 104.656L27.3829 106C26.5916 106.117 26.2252 105.827 26.0816 104.858L25.9469 103.948C25.7095 102.345 26.4731 101.221 28.2632 100.612C28.3394 100.581 28.2874 100.366 28.228 100.375L25.1476 100.872C25.0289 100.889 24.9783 100.958 24.9988 101.096L26.2617 109.623C26.2734 109.702 26.5108 109.667 26.4991 109.588C26.3086 108.302 26.5138 108.049 27.6415 107.882L36.8015 106.524C37.9489 106.354 38.2017 106.559 38.4039 107.924C38.4156 108.003 38.653 107.968 38.6413 107.889Z" fill="#B29D8C"/>
<path d="M37.5943 84.6017C37.5514 85.3205 36.9415 85.8053 34.9676 86.6504L24.8141 90.9393C24.7319 90.9745 24.7352 91.2552 24.7939 91.2787L34.2024 96.1216C36.3203 97.2284 36.8096 97.7581 36.7453 98.8362C36.7382 98.956 36.9778 98.9701 36.9849 98.8503C37.0361 97.9919 36.9837 97.528 37.0432 96.5298C37.1051 95.4916 37.2171 94.9573 37.2636 94.1787C37.2707 94.0589 37.0311 94.0448 37.024 94.1646C36.9299 95.7417 36.0062 96.4485 34.4306 95.6543L31.0683 93.9131L31.2838 90.2996L35.7848 88.4016C37.0596 87.8558 37.3871 88.0755 37.3157 89.2734C37.3085 89.3931 37.5481 89.4073 37.5553 89.2875C37.6029 88.4889 37.5552 87.9452 37.6088 87.0468C37.6552 86.2682 37.7875 85.3945 37.8339 84.6159C37.841 84.4961 37.6015 84.482 37.5943 84.6017ZM30.5623 93.6628L27.3173 91.9686L30.7492 90.5284L30.5623 93.6628Z" fill="#B29D8C"/>
<path d="M37.3289 80.6849L28.4976 78.3285C27.3961 78.0346 27.2894 77.7371 27.5275 76.8484C27.9725 75.187 29.4062 74.4725 31.4546 75.0191C33.6189 75.5966 34.3571 77.0148 34.0208 78.2705C33.9742 78.4444 33.8825 78.7097 33.7624 78.926C33.7224 78.9982 33.9581 79.1231 34.0033 79.0317C34.1582 78.7626 34.2655 78.4393 34.3431 78.1495C34.8761 76.1597 34.2602 73.5115 31.5727 72.8772C29.2911 72.3512 27.9275 73.8089 27.2962 76.1658C27.053 77.0737 26.8688 78.2251 26.7033 78.8433C26.4601 79.7513 26.1848 80.5472 26.0089 81.204C25.9882 81.2813 26.2201 81.3432 26.2407 81.2659C26.5771 80.0102 26.8659 79.8596 27.9674 80.1535L36.9146 82.5408C38.0355 82.8399 38.1911 83.1091 37.8548 84.3648C37.8341 84.4421 38.066 84.5039 38.0867 84.4267C38.2626 83.7698 38.4464 82.9288 38.6896 82.0209C38.9949 80.8811 39.2871 79.9448 39.5096 79.1141C39.5251 79.0561 39.2932 78.9942 39.2777 79.0522C38.812 80.7909 38.4884 80.9943 37.3289 80.6849Z" fill="#B29D8C"/>
<path d="M46.3595 62.7023C46.0354 63.3452 45.283 63.549 43.1354 63.5437L32.1109 63.463C32.0214 63.4628 31.9132 63.7218 31.9578 63.7666L38.6798 71.9363C40.1864 73.7906 40.4259 74.4706 39.9397 75.4349C39.8857 75.5421 40.1001 75.6499 40.1542 75.5427C40.5413 74.7749 40.6769 74.3282 41.1271 73.4353C41.5953 72.5067 41.9099 72.0605 42.2611 71.364C42.3151 71.2569 42.1007 71.1491 42.0466 71.2562C41.3353 72.667 40.2069 72.9503 39.0746 71.5976L36.6765 68.6683L38.3062 65.4361L43.192 65.4749C44.5791 65.4783 44.7928 65.8096 44.2526 66.881C44.1986 66.9882 44.413 67.096 44.467 66.9888C44.8272 66.2745 44.9988 65.7564 45.404 64.9528C45.7551 64.2564 46.2228 63.5066 46.5739 62.8101C46.628 62.703 46.4135 62.5951 46.3595 62.7023ZM36.3109 68.2383L34.002 65.3987L37.7245 65.4346L36.3109 68.2383Z" fill="#B29D8C"/>
<path d="M55.407 52.0301C54.5106 53.0792 54.1872 53.1189 53.3044 52.3664L46.2572 46.3588C45.3896 45.6193 45.3629 45.2811 46.2594 44.232C46.3113 44.1712 46.1287 44.0155 46.0767 44.0763C45.635 44.5932 45.057 45.362 44.4464 46.0766C43.7059 46.9433 43.1145 47.5429 42.6728 48.0599C42.6338 48.1055 42.8165 48.2612 42.8554 48.2156C43.8169 47.0905 44.1729 47.1049 45.0404 47.8444L48.1455 50.4914L43.6892 55.7066L40.5842 53.0596C39.7166 52.32 39.6724 51.9407 40.6078 50.846C40.6468 50.8004 40.4642 50.6447 40.4252 50.6903C39.9575 51.2377 39.4445 51.9304 38.7039 52.7971C38.0933 53.5117 37.476 54.1418 37.0343 54.6587C36.9953 54.7043 37.1779 54.86 37.2169 54.8144C38.1004 53.7805 38.4389 53.7537 39.3065 54.4933L46.3537 60.5009C47.2365 61.2534 47.248 61.5786 46.3516 62.6277C46.2996 62.6885 46.4823 62.8442 46.5342 62.7834C46.9759 62.2665 47.5301 61.5563 48.1408 60.8417C48.8813 59.975 49.4574 59.3624 49.9381 58.7998C49.9771 58.7542 49.7945 58.5985 49.7555 58.6441C48.8071 59.754 48.4837 59.7938 47.6009 59.0412L44.0849 56.0439L48.5412 50.8287L52.0572 53.826C52.94 54.5786 52.9645 54.8886 52.0031 56.0137C51.9641 56.0593 52.1468 56.215 52.1857 56.1694C52.6275 55.6524 53.1427 54.9879 53.8832 54.1212C54.4939 53.4066 55.1479 52.7027 55.5897 52.1858C55.6416 52.125 55.459 51.9693 55.407 52.0301Z" fill="#B29D8C"/>
<path d="M51.8868 39.9314C52.7239 39.3143 53.0198 39.3447 53.6139 40.1491L59.1155 47.5978C59.8047 48.5309 59.6939 48.8859 58.5027 49.7641C58.4544 49.7997 58.597 49.9927 58.6453 49.9571C59.257 49.5062 59.9898 48.9162 60.8108 48.311C61.6962 47.6583 62.4444 47.1565 63.0401 46.7174C63.1044 46.6699 62.9619 46.4769 62.8975 46.5243C61.674 47.4262 61.3662 47.3798 60.677 46.4467L55.1992 39.0301C54.5932 38.2096 54.6073 37.9259 55.4927 37.2732C56.8128 36.3 58.1685 36.4188 59.6415 37.9419C59.6933 37.9783 59.8704 37.8477 59.8347 37.7995C59.4426 37.2686 58.0972 35.2787 57.6506 34.5394C57.5912 34.459 57.4302 34.5776 57.4735 34.67C57.6104 35.0909 57.2716 35.44 56.5149 35.9978C55.6939 36.603 54.9569 37.2209 53.4437 38.3364C52.2363 39.2265 51.1136 40.0292 50.1723 40.6735C49.8664 40.899 49.2631 41.294 49.0255 40.9722C48.9423 40.8596 48.761 41.0181 48.8323 41.1146C49.4027 41.8869 50.553 43.7473 50.9003 44.3858C50.9359 44.434 51.1249 44.3196 51.1053 44.2595C50.3678 42.3184 50.5506 40.9164 51.8868 39.9314Z" fill="#B29D8C"/>
<path d="M77.9818 38.9924C76.7197 39.5504 76.4111 39.4463 75.9415 38.3856L72.1925 29.9183C71.7309 28.8759 71.8533 28.5594 73.1154 28.0013C73.1885 27.969 73.0914 27.7495 73.0182 27.7819C72.3963 28.0569 71.5426 28.5 70.7012 28.872C69.6403 29.3411 68.8477 29.6259 68.2441 29.8928C68.171 29.9251 68.2681 30.1446 68.3413 30.1123C69.6949 29.5138 69.9911 29.6889 70.4527 30.7313L70.728 31.3531L67.5399 40.5041L64.3982 33.4084C63.9367 32.366 64.0611 32.0048 65.3781 31.4225C65.4329 31.3982 65.3358 31.1788 65.2809 31.203C64.6224 31.4942 63.8602 31.8968 62.8176 32.3578C61.9579 32.7379 61.1287 33.0389 60.5068 33.3139C60.452 33.3382 60.5491 33.5576 60.604 33.5334C61.8478 32.9834 62.1645 33.1058 62.626 34.1482L66.375 42.6155C66.8446 43.6762 66.7142 43.9744 65.4521 44.5325C65.3789 44.5648 65.4761 44.7843 65.5493 44.7519C66.1712 44.4769 66.9781 44.0764 67.8378 43.6963C68.8804 43.2353 69.6649 42.9322 70.3416 42.6329C70.3965 42.6087 70.2993 42.3892 70.2445 42.4135C68.9092 43.0039 68.6006 42.8998 68.131 41.8391L67.8395 41.1807L71.0276 32.0298L74.1855 39.162C74.6551 40.2227 74.5613 40.5048 73.2077 41.1033C73.1345 41.1356 73.2317 41.3551 73.3049 41.3227C73.9085 41.0558 74.6605 40.6796 75.7214 40.2105C76.5628 39.8384 77.457 39.4868 78.0789 39.2118C78.1521 39.1795 78.0549 38.96 77.9818 38.9924Z" fill="#B29D8C"/>
<path d="M89.0571 36.8977C87.6254 37.1838 87.4058 37.0033 87.1785 35.8658L85.3641 26.7853C85.1407 25.6674 85.2702 25.3968 86.6823 25.1146C86.7608 25.099 86.7137 24.8636 86.6353 24.8793C85.9292 25.0204 85.1173 25.2438 84.1367 25.4398C83.4698 25.573 82.3873 25.6669 81.8381 25.7767C79.5827 26.2273 78.1429 27.7999 78.4995 29.5847C78.8248 31.2125 80.319 32.056 82.8529 31.7741C81.6251 32.2641 80.8248 33.0563 80.1302 35.0919C79.157 37.6726 78.9293 38.8806 77.6623 39.1746C77.6035 39.1863 77.6505 39.4217 77.7093 39.4099L80.1021 38.9318C80.5531 38.8417 80.6394 38.9672 81.9345 35.1393C82.7743 32.6056 83.3785 31.8526 84.3709 31.5115L85.3153 36.2381C85.5426 37.3756 85.3896 37.6305 84.0952 37.8892C84.0167 37.9049 84.0637 38.1402 84.1422 38.1245C84.809 37.9913 85.6053 37.7914 86.5663 37.5994C87.5273 37.4073 88.3981 37.2741 89.1041 37.1331C89.163 37.1213 89.1159 36.886 89.0571 36.8977ZM80.3432 28.7064C80.0453 27.2158 80.5358 26.302 81.8694 26.0355C82.5363 25.9023 83.2815 26.0593 83.5088 27.1968L84.2925 31.1193C84.1395 31.1703 83.9826 31.2016 83.865 31.2251C81.9233 31.6131 80.7076 30.5303 80.3432 28.7064Z" fill="#B29D8C"/>
<path d="M108.191 37.8654C106.819 37.7167 106.604 37.4721 106.73 36.319L107.734 27.1138C107.858 25.9806 108.123 25.7679 109.495 25.9166C109.574 25.9252 109.6 25.6866 109.521 25.678C108.845 25.6047 107.884 25.5609 106.949 25.4596C105.816 25.3367 104.987 25.1866 104.311 25.1133C104.252 25.1068 104.226 25.3454 104.285 25.3519C105.757 25.5114 105.945 25.8134 105.821 26.9467L105.379 31.0025L98.5586 30.2632L99.0011 26.2073C99.1247 25.0741 99.4136 24.8238 100.845 24.979C100.905 24.9854 100.931 24.7468 100.871 24.7404C100.155 24.6628 99.2939 24.6297 98.1605 24.5069C97.226 24.4056 96.3576 24.2511 95.6816 24.1778C95.6219 24.1713 95.5959 24.4099 95.6555 24.4164C97.0076 24.5629 97.2202 24.8274 97.0966 25.9606L96.0923 35.1658C95.9665 36.3189 95.704 36.5118 94.332 36.3631C94.2525 36.3544 94.2264 36.593 94.306 36.6016C94.982 36.6749 95.8811 36.7322 96.8157 36.8335C97.9491 36.9563 98.7799 37.0866 99.5156 37.1664C99.5752 37.1728 99.6012 36.9343 99.5416 36.9278C98.0901 36.7704 97.8753 36.5259 98.0011 35.3727L98.5022 30.7801L105.322 31.5194L104.821 36.1121C104.696 37.2652 104.453 37.4602 102.982 37.3007C102.922 37.2942 102.896 37.5328 102.955 37.5393C103.632 37.6126 104.471 37.6633 105.604 37.7862C106.539 37.8875 107.489 38.0307 108.165 38.104C108.245 38.1126 108.271 37.8741 108.191 37.8654Z" fill="#B29D8C"/>
<path d="M121.59 42.7023C120.914 42.4536 120.627 41.7299 120.391 39.5972L119.234 28.6436C119.224 28.5547 118.955 28.4768 118.915 28.5261L111.545 36.1279C109.87 37.8343 109.221 38.1493 108.207 37.7762C108.095 37.7348 108.011 37.9599 108.124 38.0014C108.931 38.2985 109.391 38.3823 110.329 38.7278C111.305 39.087 111.784 39.3486 112.516 39.6181C112.629 39.6595 112.712 39.4344 112.599 39.3929C111.116 38.8471 110.708 37.7591 111.926 36.4813L114.57 33.7677L117.967 35.0182L118.477 39.873C118.629 41.2503 118.324 41.5002 117.198 41.0856C117.085 41.0442 117.002 41.2693 117.115 41.3108C117.865 41.5871 118.4 41.6986 119.244 42.0095C119.976 42.279 120.775 42.658 121.507 42.9274C121.619 42.9689 121.702 42.7438 121.59 42.7023ZM114.957 33.3559L117.521 30.741L117.903 34.4406L114.957 33.3559Z" fill="#B29D8C"/>
<path d="M134.851 43.5309C136.445 43.9703 137.765 43.6069 138.519 42.5975C139.488 41.2996 139.048 39.7497 137.14 38.3277C136.514 37.8617 135.721 37.4201 135.127 36.978C134.389 36.4283 133.736 35.8664 133.19 35.4601C133.142 35.4243 132.999 35.6165 133.047 35.6524C134.025 36.3813 134.122 36.7528 133.44 37.6662L127.899 45.085C127.205 46.0143 126.816 45.9994 125.838 45.2705C125.774 45.2227 125.63 45.415 125.695 45.4628C126.24 45.869 126.969 46.3628 127.707 46.9124C128.429 47.4502 129.352 48.2872 129.961 48.7412C131.982 50.2469 134.447 50.0882 135.716 48.3898C136.805 46.9316 136.472 45.0376 134.851 43.5309ZM136.628 38.445C137.766 39.2934 137.789 40.4327 136.904 41.6184C135.982 42.8522 134.659 43.3875 133.343 42.4077C133.311 42.3838 133.055 42.1926 132.682 41.8898L134.956 38.8453C135.614 37.9641 135.97 37.9551 136.628 38.445ZM129.964 48.1696C128.857 47.3451 128.924 46.9211 129.439 46.2321L132.347 42.3384C132.756 42.5932 133.108 42.8561 133.333 43.0234C135.017 44.278 134.981 45.9971 133.808 47.5674C132.755 48.9775 131.487 49.3048 129.964 48.1696Z" fill="#B29D8C"/>
<path d="M142.759 56.4607C141.158 57.296 139.765 57.0637 138.536 55.748L137.867 55.0317C137.28 54.4031 137.309 53.994 137.953 53.3941L141.274 50.2992L142.571 51.688C143.595 52.7843 143.661 53.7342 142.856 54.4841C142.797 54.5386 142.961 54.714 143.02 54.6595C143.547 54.1687 143.93 53.7295 144.413 53.2795C144.793 52.9251 145.084 52.7089 145.713 52.1226C145.772 52.0681 145.608 51.8927 145.549 51.9472C144.847 52.6016 143.975 52.4299 142.979 51.3627L141.655 49.9447L144.625 47.1771C145.239 46.6045 145.706 46.6348 146.374 47.3511L146.92 47.9359C147.971 49.0615 148.043 50.252 147.163 51.5367C147.119 51.5776 147.284 51.7248 147.328 51.6839L149.203 49.8822C149.291 49.8004 149.307 49.7303 149.212 49.628L143.52 43.5321C143.465 43.4736 143.29 43.6372 143.344 43.6957C144.231 44.6459 144.206 44.9703 143.372 45.7474L136.597 52.0599C135.749 52.8506 135.438 52.8398 134.55 51.8896C134.496 51.8311 134.32 51.9947 134.375 52.0532L140.299 58.3976C140.463 58.573 140.562 58.5623 140.723 58.4123C141.367 57.8125 142.269 57.1084 142.893 56.6634C142.937 56.6225 142.816 56.4345 142.759 56.4607Z" fill="#B29D8C"/>
<path d="M155.87 58.772C153.828 55.4962 149.815 53.8232 146.521 55.8729C143.957 57.4682 142.052 61.1035 144.771 65.4655C145.416 66.5009 146.242 67.4476 147.333 68.2527C147.517 68.3972 147.579 68.3825 147.882 68.2643L150.214 67.1666C150.265 67.1349 150.21 66.9334 150.104 66.9523C147.644 67.3526 146.003 66.7245 145.083 65.2478C143.559 62.8037 144.974 59.4028 148.133 57.4377C150.85 55.7472 153.558 55.9704 155.049 58.3636C156.16 60.1458 156.066 62.1122 154.713 63.873C154.649 63.9597 154.795 64.0808 154.846 64.0491L156.927 62.4719C157.154 62.3071 157.201 62.2308 157.176 61.9638C157.069 61.1117 156.483 59.7564 155.87 58.772Z" fill="#B29D8C"/>
<path d="M156.072 72.3397C155.893 71.8515 155.669 71.3583 155.408 70.8788L159.07 69.5371C160.141 69.1449 160.486 69.2739 160.982 70.6258C161.01 70.7009 161.235 70.6183 161.207 70.5432C160.966 69.886 160.607 69.0805 160.214 68.0102C159.897 67.1465 159.678 66.3748 159.444 65.7364C159.423 65.6801 159.198 65.7626 159.219 65.819C159.666 67.0394 159.517 67.3286 158.446 67.7208L149.752 70.9066C148.663 71.3057 148.373 71.156 147.926 69.9356C147.898 69.8605 147.673 69.943 147.7 70.0181C147.935 70.6565 148.275 71.469 148.592 72.3327C148.902 73.1776 149.258 74.4957 149.492 75.1341C150.367 77.5188 152.477 78.6838 154.524 77.9338C156.777 77.1081 156.967 74.7806 156.072 72.3397ZM149.793 74.6191C149.318 73.3235 149.718 72.9637 150.413 72.7091L154.976 71.0371C155.15 71.3357 155.286 71.648 155.389 71.9296C156.078 73.8073 155.631 75.3768 153.34 76.2163C151.669 76.8287 150.461 76.4404 149.793 74.6191Z" fill="#B29D8C"/>
<path d="M165.672 91.2859C165.403 87.4353 162.643 84.082 158.772 84.3561C155.76 84.5694 152.374 86.8944 152.732 92.0219C152.817 93.2389 153.103 94.4617 153.69 95.6833C153.785 95.8972 153.846 95.9129 154.17 95.9501L156.744 96.0685C156.804 96.0643 156.85 95.8605 156.747 95.8277C154.386 95.0325 153.231 93.7108 153.11 91.9751C152.909 89.1021 155.752 86.7554 159.463 86.4926C162.655 86.2666 164.943 87.7286 165.139 90.5417C165.286 92.6366 164.281 94.3317 162.261 95.2568C162.164 95.3037 162.236 95.4791 162.296 95.4748L164.873 95.0517C165.151 95.012 165.228 94.9664 165.331 94.7186C165.636 93.915 165.753 92.4431 165.672 91.2859Z" fill="#B29D8C"/>
<path d="M154.426 100.951L163.493 102.106C164.624 102.25 164.769 102.53 164.652 103.443C164.434 105.149 163.108 106.049 161.005 105.781C158.783 105.498 157.862 104.191 158.027 102.901C158.05 102.723 158.106 102.448 158.196 102.217C158.226 102.14 157.975 102.048 157.943 102.145C157.825 102.432 157.762 102.767 157.724 103.064C157.462 105.108 158.427 107.65 161.175 107.919C163.506 108.136 164.662 106.509 164.973 104.089C165.092 103.156 165.121 101.991 165.202 101.356C165.322 100.423 165.488 99.5979 165.574 98.9234C165.585 98.8441 165.347 98.8137 165.336 98.8931C165.171 100.183 164.905 100.37 163.774 100.226L154.588 99.0559C153.437 98.9093 153.247 98.6632 153.413 97.3738C153.423 97.2945 153.185 97.2641 153.174 97.3435C153.088 98.018 153.018 98.876 152.899 99.8084C152.749 100.979 152.584 101.946 152.475 102.799C152.467 102.858 152.705 102.889 152.713 102.829C152.942 101.044 153.236 100.799 154.426 100.951Z" fill="#B29D8C"/>
<path d="M149.777 113.126C148.513 116.709 150.178 120.707 153.687 121.941C156.725 123.009 160.461 121.799 161.771 118.084C162.849 115.028 162.094 110.735 158 109.296C154.679 108.129 151.055 109.505 149.777 113.126ZM150.004 113.926C150.948 111.248 154.325 110.273 157.967 111.553C161.043 112.634 162.444 114.674 161.566 117.163C160.541 120.068 157.324 120.951 153.852 119.731C150.475 118.544 149.219 116.152 150.004 113.926Z" fill="#B29D8C"/>
<path d="M140.632 131.409C141.435 130.237 142.961 130.196 145.695 130.051C148.346 129.924 149.1 129.862 149.948 128.767L151.34 132.847C151.916 134.501 151.871 136.16 151.188 137.219C151.156 137.269 151.357 137.399 151.39 137.349C151.726 136.828 151.989 136.308 152.618 135.333C153.203 134.425 153.632 133.869 153.979 133.331C154.012 133.28 153.81 133.151 153.777 133.201C153.192 134.109 152.338 133.774 151.602 131.851L150.236 128.358L150.312 128.24C150.518 127.921 150.756 127.551 151.021 127.103L154.554 129.374C155.513 129.99 155.619 130.343 154.882 131.486C154.85 131.537 155.052 131.667 155.084 131.616C155.463 131.028 155.9 130.239 156.474 129.348C156.984 128.558 157.489 127.884 157.857 127.313C157.901 127.245 157.699 127.116 157.655 127.183C156.919 128.326 156.587 128.398 155.628 127.781L147.838 122.775C146.862 122.147 146.807 121.827 147.554 120.667C147.598 120.6 147.396 120.47 147.352 120.537C146.984 121.109 146.552 121.853 146.043 122.643C145.469 123.534 144.958 124.252 144.568 124.857C144.536 124.908 144.738 125.038 144.77 124.987C145.518 123.827 145.822 123.761 146.798 124.389L150.735 126.919L150.692 126.986C149.922 128.18 149.327 128.106 146.398 128.221C142.321 128.382 142.25 128.455 142.001 128.842L140.43 131.279C140.398 131.33 140.599 131.46 140.632 131.409Z" fill="#B29D8C"/>
<path d="M139.789 149.413C142.736 146.921 143.809 142.712 141.301 139.752C139.348 137.448 135.471 136.091 131.547 139.411C130.615 140.198 129.798 141.152 129.159 142.347C129.043 142.55 129.066 142.609 129.227 142.892L130.654 145.038C130.693 145.084 130.884 145.001 130.85 144.898C130.096 142.524 130.479 140.811 131.807 139.687C134.006 137.828 137.58 138.734 139.985 141.572C142.054 144.013 142.227 146.722 140.074 148.543C138.471 149.9 136.51 150.091 134.57 149.008C134.474 148.958 134.376 149.12 134.415 149.166L136.279 150.994C136.475 151.195 136.558 151.23 136.818 151.167C137.647 150.938 138.904 150.162 139.789 149.413Z" fill="#B29D8C"/>
<path d="M126.978 143.104C123.84 144.742 127.012 150.982 128.856 154.51C129.328 155.414 129.323 155.619 128.348 156.128L126.663 157.007C125.635 157.544 125.6 157.563 125.025 156.464L120.819 148.417C120.281 147.389 120.375 147.092 121.616 146.444C121.669 146.416 121.558 146.204 121.504 146.231C120.866 146.564 120.087 147.016 119.165 147.498C118.332 147.932 117.551 148.295 116.93 148.619C116.877 148.647 116.988 148.859 117.041 148.831C118.282 148.184 118.597 148.268 119.134 149.296L123.424 157.502C123.952 158.513 123.851 158.836 122.61 159.484C122.556 159.512 122.668 159.725 122.721 159.697L132.136 154.783C132.206 154.746 132.095 154.533 132.024 154.57C130.34 155.449 129.64 154.845 128.547 152.753C127.166 150.112 125.524 145.848 127.581 144.775L127.953 144.58C128.396 144.349 128.712 143.959 128.415 143.392C128.119 142.824 127.563 142.798 126.978 143.104Z" fill="#B29D8C"/>
<path d="M108.106 164.12C108.819 163.923 109.169 163.763 109.959 163.544C110.923 163.277 111.421 163.201 112.096 163.014C112.153 162.998 112.089 162.767 112.031 162.783C110.779 163.13 110.11 162.59 110.338 161.468L111.467 155.364L116.099 160.389C116.813 161.167 116.387 161.576 115.404 161.848C115.327 161.869 115.391 162.101 115.468 162.079C115.989 161.935 116.551 161.717 118.112 161.284C119.326 160.947 119.477 160.968 120.094 160.797C120.171 160.775 120.107 160.544 120.03 160.566C119.259 160.779 118.786 160.495 118.031 159.646L111.875 153.093C112.329 151.286 113.79 149.822 115.486 149.352C115.563 149.33 115.499 149.099 115.422 149.12L112.011 150.066C111.452 150.221 111.767 150.757 111.325 153.204L109.793 161.598C109.53 162.895 108.948 163.638 108.042 163.889C107.965 163.911 108.029 164.142 108.106 164.12Z" fill="#B29D8C"/>
<path d="M85.5344 152.814C86.9545 152.852 87.7969 154.071 89.4213 156.33C90.9655 158.468 91.3467 159.088 92.6869 159.206L90.1134 162.589C88.9364 164.13 87.7377 164.831 86.3777 164.833C86.2977 164.833 86.2982 165.073 86.3782 165.073C86.9982 165.072 87.5781 165.011 88.7181 165.01C89.7981 165.009 90.6782 165.068 91.3182 165.068C91.3782 165.068 91.3778 164.828 91.3178 164.828C90.0177 164.829 90.0957 163.769 91.2923 162.008L93.167 159.226L93.327 159.226C93.707 159.225 94.1669 159.205 94.7269 159.184L94.7351 163.404C94.7373 164.544 94.4378 164.824 93.0578 164.826C92.9978 164.826 92.9983 165.066 93.0583 165.066C93.7583 165.065 94.7382 165.004 95.7782 165.003C96.6782 165.002 97.5983 165.061 98.2783 165.061C98.3583 165.061 98.3579 164.821 98.2779 164.821C96.9178 164.822 96.6174 164.582 96.6152 163.442L96.6069 159.182C97.167 159.202 97.607 159.221 98.007 159.221L98.167 159.221L100.093 162.059C101.296 163.798 101.338 164.818 100.038 164.819C99.9779 164.819 99.9784 165.059 100.038 165.059C100.678 165.058 101.558 164.997 102.618 164.996C103.778 164.995 104.358 165.055 104.978 165.054C105.058 165.054 105.058 164.814 104.978 164.814C103.618 164.815 102.397 164.117 101.234 162.578L98.627 159.2C99.9668 159.079 100.366 158.479 101.901 156.317C103.517 154.056 104.355 152.835 105.775 152.793C105.855 152.793 105.854 152.553 105.774 152.553L102.874 152.556C102.414 152.557 102.334 152.577 100.001 155.939C98.3253 158.321 98.1463 158.861 96.7663 158.862L96.6063 158.862L96.5973 154.183C96.595 153.023 96.8346 152.802 98.2146 152.801C98.2946 152.801 98.2941 152.561 98.2141 152.561C97.5341 152.562 96.6542 152.602 95.7542 152.603C94.7142 152.604 93.8141 152.565 93.1141 152.566C93.0341 152.566 93.0345 152.806 93.1145 152.806C94.4946 152.805 94.715 153.024 94.7172 154.184L94.7263 158.864L94.5663 158.864C93.1863 158.866 93.0052 158.326 91.3205 155.928C88.9741 152.59 88.894 152.57 88.434 152.571L85.534 152.574C85.454 152.574 85.4544 152.814 85.5344 152.814Z" fill="#B29D8C"/>
<path d="M78.8503 157.556C79.3533 157.688 79.8857 157.786 80.4284 157.846L79.4538 161.54C79.1935 162.526 78.89 162.736 77.9035 162.476L76.9943 162.237C75.5823 161.866 74.7826 160.663 74.9386 158.74C74.9345 158.677 74.7218 158.621 74.7065 158.679L74.1651 161.514C74.0732 161.862 74.0966 161.931 74.4061 162.012L82.3369 164.097C82.3949 164.112 82.4562 163.88 82.3981 163.865C81.1408 163.534 80.9893 163.246 81.2801 162.144L83.6427 153.191C83.9387 152.069 84.2269 151.917 85.4843 152.248C85.5616 152.268 85.6229 152.036 85.5455 152.016C84.8878 151.843 84.0265 151.658 83.1367 151.424C82.2663 151.195 80.9815 150.733 80.3238 150.561C77.8672 149.915 75.7039 150.98 75.1477 153.088C74.5353 155.408 76.3357 156.895 78.8503 157.556ZM80.574 151.102C81.9087 151.453 81.9746 151.987 81.7858 152.703L80.5458 157.402C80.2016 157.373 79.8677 157.306 79.5775 157.23C77.6432 156.721 76.6115 155.457 77.234 153.098C77.6882 151.377 78.6977 150.609 80.574 151.102Z" fill="#B29D8C"/>
<path d="M67.2946 153.433C67.7531 153.678 68.2482 153.898 68.7622 154.082L66.9183 157.518C66.3793 158.523 66.0353 158.656 64.7656 157.977C64.695 157.939 64.5816 158.151 64.6521 158.189C65.2693 158.519 66.0736 158.881 67.0788 159.419C67.89 159.853 68.5671 160.283 69.1667 160.604C69.2196 160.632 69.333 160.421 69.2801 160.393C68.1339 159.779 68.0533 159.464 68.5923 158.46L72.9704 150.3C73.5188 149.278 73.8344 149.198 74.9807 149.811C75.0513 149.849 75.1647 149.637 75.0942 149.599C74.4946 149.279 73.6997 148.899 72.8885 148.465C72.095 148.04 70.9525 147.293 70.3529 146.972C68.1133 145.773 65.7615 146.307 64.7308 148.228C63.5961 150.343 65.0021 152.206 67.2946 153.433ZM61.102 142.385C62.2659 143.008 62.3382 143.296 61.7898 144.318L57.4306 152.442C56.8917 153.447 56.5653 153.589 55.419 152.976C55.3661 152.948 55.2526 153.159 55.3055 153.188C55.8875 153.499 56.6742 153.852 57.5559 154.324C58.3848 154.767 59.1147 155.226 59.7143 155.547C59.7848 155.584 59.8983 155.373 59.8278 155.335C58.6815 154.722 58.5833 154.397 59.1223 153.393L63.5004 145.233C64.0488 144.211 64.3644 144.131 65.5107 144.744C65.5812 144.782 65.6947 144.57 65.6242 144.532C65.0246 144.212 64.2474 143.841 63.4185 143.398C62.5368 142.926 61.8326 142.504 61.2154 142.173C61.1625 142.145 61.049 142.357 61.102 142.385ZM70.4705 147.556C71.6873 148.207 71.6273 148.742 71.2774 149.394L68.9796 153.677C68.6515 153.569 68.3422 153.426 68.0777 153.285C66.3142 152.341 65.6042 150.873 66.7578 148.723C67.5993 147.154 68.7599 146.641 70.4705 147.556Z" fill="#B29D8C"/>
</svg>
