<svg width="26" height="26" viewBox="0 0 26 26" fill="none" xmlns="http://www.w3.org/2000/svg">
<g clip-path="url(#clip0_253_812)">
<path d="M10.4 20.8C4.64 20.8 0 16.16 0 10.4C0 4.64 4.64 0 10.4 0C16.16 0 20.8 4.64 20.8 10.4C20.8 16.16 16.16 20.8 10.4 20.8ZM10.4 1.6C5.52 1.6 1.6 5.52 1.6 10.4C1.6 15.28 5.52 19.2 10.4 19.2C15.28 19.2 19.2 15.28 19.2 10.4C19.2 5.52 15.28 1.6 10.4 1.6Z" fill="#212121"/>
<path d="M18.8115 17.6799L25.9997 24.8681L24.8678 25.9999L17.6797 18.8118L18.8115 17.6799Z" fill="#212121"/>
</g>
<defs>
<clipPath id="clip0_253_812">
<rect width="26" height="26" fill="white"/>
</clipPath>
</defs>
</svg>
